<svg id="Layer_1" data-name="Layer 1" xmlns="http://www.w3.org/2000/svg" viewBox="0 0 391.46 275.35"><path d="M40.54,60.88a16.13,16.13,0,0,1-4.92,2.57,11.6,11.6,0,0,1-5.11.44,7.43,7.43,0,0,1-4.36-2.18,55.62,55.62,0,0,0-2.24,10.38,4.69,4.69,0,0,1-.83,1.71A6.45,6.45,0,0,1,18.42,78a9.51,9.51,0,0,1-6.61-.35,6.12,6.12,0,0,1-2.36-1.89,4.8,4.8,0,0,1-.94-3,219.93,219.93,0,0,1,7.84-23.13c.55-1.25,1-2.28,1.33-3.06s.64-1.46.92-2,.52-1,.73-1.45.48-.87.8-1.38c.71-1.18,1.52-2.57,2.45-4.16A27.74,27.74,0,0,1,24.94,34a13.21,13.21,0,0,1,2.06-2,21.22,21.22,0,0,1,2.42-1.62c.89-.51,2-1.18,3.34-2a10.21,10.21,0,0,1,15,5q1.77,4.36.59,11.74Q46.56,56.29,40.54,60.88ZM28.21,55.63q4.84-1.07,6.73-6.31a19.66,19.66,0,0,0,.65-10,44.79,44.79,0,0,0-2.45,4.78c-.73,1.65-1.39,3.13-2,4.42C29.86,51.41,28.88,53.78,28.21,55.63Z"/><path d="M59.36,66.08c2.28.23,4,.35,5.11.35a42,42,0,0,0,5.1-.47c.71.23,1.12.53,1.24.88a2.53,2.53,0,0,1,.12,1.09A3.37,3.37,0,0,0,71,69c.07.35.45.64,1.12.88.35.12.46.46.32,1a5.21,5.21,0,0,1-1,1.86,10.45,10.45,0,0,1-4.6,3.54,42.34,42.34,0,0,1-6.67,1.24,44.31,44.31,0,0,1-8.73-.29c-3.46-.63-5.14-2.07-5-4.31a62.13,62.13,0,0,1,5.43-24.9q1.77-4.06,4-8.55a5.58,5.58,0,0,0,.56-2.13c.06-.79.11-1.55.15-2.3a7.93,7.93,0,0,1,.35-2,1.92,1.92,0,0,1,1.24-1.23Q70.45,27,77.59,28.08c1.66,0,2.75.6,3.28,1.68a4.8,4.8,0,0,1,.18,3.63,9.15,9.15,0,0,1-2.42,3.78,8,8,0,0,1-4.52,2.18,41.63,41.63,0,0,0-4.24,1.36,4.56,4.56,0,0,0-2.13,1.88c-.55.87-1.06,1.7-1.53,2.48a8.49,8.49,0,0,0-1,2.54L65,48.91a4.89,4.89,0,0,0,2.74.32c1.08-.14,2.09-.27,3-.41a6.51,6.51,0,0,1,2.24,0q.86.18.36,1.74A14.51,14.51,0,0,1,71.49,54a7.54,7.54,0,0,1-3.75,2.83c-1,.2-1.72.35-2.09.44l-.86.21c-.27,0-1.06.1-2.36.18A28.48,28.48,0,0,0,59.07,65C58.91,65.72,59,66.08,59.36,66.08Z"/><path d="M87.27,73.69q-.52,2.36-3.66,2.89a9,9,0,0,1-5.49-.65c-1.92-.83-2.77-2-2.53-3.48q-.36-3.42,3.6-14.87Q85.09,40.41,91,33a9.3,9.3,0,0,1,2.62-2.45,18.1,18.1,0,0,1,2.51-1c.94-.31,1.93-.6,2.95-.88a41.33,41.33,0,0,1,5.81-1.15,9.21,9.21,0,0,1,4.93.65A7.62,7.62,0,0,1,113.2,31a10.18,10.18,0,0,1,1.5,4.45,19.13,19.13,0,0,1-.17,5.37,25.1,25.1,0,0,1-1.71,5.67,25.77,25.77,0,0,1-3.13,5.34,18.58,18.58,0,0,1-9.68,7l.59,1c.51.79,1.13,1.65,1.86,2.6s1.46,1.9,2.18,2.89a34.56,34.56,0,0,1,2,2.95,13.59,13.59,0,0,1,1.3,2.77c.63,1.93.14,3.32-1.48,4.19-1.29.79-2.32,1-3.06.59a6.13,6.13,0,0,1-.95-.74,3.8,3.8,0,0,0-1.3-.74q-3.48,1-5.31-1.77a21.52,21.52,0,0,1-1.71-3.24c-.39-1-.73-1.81-1-2.48a17.7,17.7,0,0,0-2.42-3.77c-.43,1.06-.92,2.41-1.47,4.07q-1,3.12-2.25,6.49ZM99.19,39.35c-.75,1.69-1.26,2.87-1.54,3.54q-.83,2-1.83,4.42c-.11.87-.21,1.48-.29,1.83l.83-.82,1-.48,2-1.06a6.57,6.57,0,0,0,1.59-1.18,11.25,11.25,0,0,0,2.36-4.42,3.7,3.7,0,0,1,.2-1.18,5.14,5.14,0,0,0,.27-1.18A1.52,1.52,0,0,0,102.67,37c-.79-.08-1.77.57-3,1.95C99.48,39.21,99.31,39.35,99.19,39.35Z"/><path d="M134.47,30.44a12.08,12.08,0,0,1,.65,2.12,2,2,0,0,1-.83,1.89s0,.1-.12.18a16.49,16.49,0,0,1,.24,5.19c-.2,1.61-.45,3.17-.77,4.66q3.2-5.43,5.08-8A31.62,31.62,0,0,1,146,29a9.13,9.13,0,0,1,2.75-1,8.52,8.52,0,0,1,3.09-.09,4.42,4.42,0,0,1,2.45,1.18,3.46,3.46,0,0,1,.86,2.83q-1.65,11.51-3.54,21.45a145.75,145.75,0,0,1-4.9,19v.12h-.06a4.92,4.92,0,0,1-3.54,3,8.16,8.16,0,0,1-5,.11c-1.77-.51-2.58-1.45-2.42-2.83l.06-1.36v-.11c.15-1,.24-1.59.26-1.92a4.47,4.47,0,0,1,.09-.74,14.83,14.83,0,0,1,.5-2.86c.26-.88.44-1.6.56-2.15s.24-1.07.36-1.57.19-.87.23-1.15a18.94,18.94,0,0,1-3.18,3.72,8.75,8.75,0,0,1-5.49,1.53c-1.3-.08-2-.37-2.24-.88a10.19,10.19,0,0,0-.83-2,4.3,4.3,0,0,1-.59-1.59,43.34,43.34,0,0,1-3,9.62c-.39.74-.79,1.41-1.18,2-.55,1.3-1.81,2.2-3.77,2.72a8.73,8.73,0,0,1-5.31-.12c-1.73-.55-2.56-1.54-2.48-2.95a33.08,33.08,0,0,1,.85-5.34q.75-3.23,1.74-6.82,3-11.39,4.28-14.81t2.15-5.36a34.61,34.61,0,0,1,3.78-6.61,8,8,0,0,1,6.08-4.49A8.3,8.3,0,0,1,134.47,30.44Z"/><path d="M184.68,33.51a4.79,4.79,0,0,1,2.53,3.12q-1.17,6.61-2.12,13.13t-1.83,10.92q-.88,4.4-1.21,6.58c-.21,1.45-.46,2.91-.74,4.36L181,72.86c-.08.43-.16.84-.24,1.21s-.15.78-.23,1.21A5.66,5.66,0,0,1,176,77.17a7,7,0,0,1-4.78-1.54c-.7-.55-.82-1.71-.35-3.48a12.35,12.35,0,0,0,.38-2.74c.06-1.12.13-2.06.21-2.8v-.12a12.91,12.91,0,0,0-3.19,1.68c-.94.69-1.53,1.12-1.76,1.3a2.69,2.69,0,0,1-.95.41,9,9,0,0,1-1.06.21,3.24,3.24,0,0,0-1.54.35q-3.42,6.14-6.13,6.85a7.52,7.52,0,0,1-3.42.26,3.74,3.74,0,0,1-2.72-2q-1.89-1.77.95-9.68A108.29,108.29,0,0,1,156,55.78q2.86-5.87,5.52-10.24a75.16,75.16,0,0,1,12.57-15.81c.74-.31,1.55-.68,2.42-1.09A6.69,6.69,0,0,1,179.1,28a8.65,8.65,0,0,1,2.63.3,6.51,6.51,0,0,1,2.3,1.06Q186.21,31,184.68,33.51ZM172.05,49c-.83,2.36-1.65,4.54-2.48,6.52s-1.53,3.73-2.12,5.23l4.66-.18c.31-2.52.67-5,1.06-7.49s.77-5,1.12-7.44Zm-1.59,11.8a11.43,11.43,0,0,0,1.65-.11v-.06l-1.42.12C170.26,60.8,170.18,60.82,170.46,60.82Z"/><path d="M189.34,50.62c.78-2.64,1.42-4.67,1.92-6.11s1-2.72,1.44-3.86a28.16,28.16,0,0,1,1.62-3.31,21.49,21.49,0,0,1,2-2.92,9.59,9.59,0,0,1,2.33-2.09,4.51,4.51,0,0,1,5.43.29c1.57,3.94,2.53,6.57,2.89,7.91a73,73,0,0,1,1.3,8.32c.35-.91.75-1.86,1.21-2.86s.89-2,1.32-3a33.54,33.54,0,0,0,2.3-5.9,10.2,10.2,0,0,1,5.37-6.2,10,10,0,0,1,6.61-1.12,2.51,2.51,0,0,1,1.74,1,1.38,1.38,0,0,1,0,1.6,2.16,2.16,0,0,0-.35,1.56c.1.49.18,1.07.26,1.74a8.75,8.75,0,0,1-.94,4.81,44.51,44.51,0,0,0-2.3,5.19q-1.19,3.1-2.39,6.58c-.81,2.32-1.62,4.68-2.45,7.08s-1.63,4.58-2.42,6.55q-2.6,6.78-4.25,7.49a12.88,12.88,0,0,1-3.3,1.6,16.09,16.09,0,0,1-3.84,0q-1.53-.12-2.65-4A38,38,0,0,1,201,65.25a45.72,45.72,0,0,0-1.3-7,88.89,88.89,0,0,1-3.33,9.67,17.06,17.06,0,0,1-1.48,2.66c-.33.43-.74,1-1.21,1.71a5.42,5.42,0,0,1-3.65,3.13,6.68,6.68,0,0,1-4.49.29c-1.45-.47-1.89-1.37-1.3-2.71Q184.92,65.9,189.34,50.62Z"/><path d="M235.83,66.08c2.28.23,4,.35,5.1.35A42.27,42.27,0,0,0,246,66c.7.23,1.12.53,1.23.88a2.53,2.53,0,0,1,.12,1.09,3.37,3.37,0,0,0,.06,1.1c.08.35.45.64,1.12.88.36.12.46.46.33,1a5.26,5.26,0,0,1-1,1.86,10.4,10.4,0,0,1-4.6,3.54,41.94,41.94,0,0,1-6.67,1.24,44.35,44.35,0,0,1-8.73-.29q-5.19-.95-5-4.31a62.13,62.13,0,0,1,5.43-24.9q1.77-4.06,4-8.55a5.77,5.77,0,0,0,.56-2.13c.06-.79.11-1.55.14-2.3a7.5,7.5,0,0,1,.36-2,1.92,1.92,0,0,1,1.24-1.23q12.27-4.91,19.41-3.78,2.48.06,3.27,1.68a4.8,4.8,0,0,1,.18,3.63,9.05,9.05,0,0,1-2.42,3.78,8,8,0,0,1-4.51,2.18,42.2,42.2,0,0,0-4.25,1.36,4.58,4.58,0,0,0-2.12,1.88c-.55.87-1.07,1.7-1.54,2.48a8.47,8.47,0,0,0-1,2.54l-.24,1.3a4.93,4.93,0,0,0,2.75.32c1.08-.14,2.08-.27,3-.41a6.51,6.51,0,0,1,2.24,0c.57.12.69.7.35,1.74A13.83,13.83,0,0,1,248,54a7.47,7.47,0,0,1-3.74,2.83c-1,.2-1.72.35-2.1.44l-.85.21c-.28,0-1.07.1-2.36.18A29,29,0,0,0,235.53,65C235.38,65.72,235.47,66.08,235.83,66.08Zm17.52-41a6.15,6.15,0,0,1,.3-1.71,5.29,5.29,0,0,0-.62-2.07c-.34-.59-.66-1.18-1-1.77-1.85,2.29-3.24,3.9-4.19,4.84A13,13,0,0,1,243,26.9Q240.32,28,239,27a1.46,1.46,0,0,1-.64-1.33,4.72,4.72,0,0,1,.88-2.33q5.19-6.19,7.55-8.55c1.58-1.58,2.8-2.77,3.69-3.57s1.67-1.54,2.36-2.19a7.72,7.72,0,0,1,2.27-1.5c2.09-.91,3.52-.89,4.31.06.23.86-.16,1.81-1.18,2.83v.88a28.85,28.85,0,0,1,.65,6.38l.5,1.94a6.42,6.42,0,0,1,.15,2.19,4.51,4.51,0,0,1-3,3.71,5.77,5.77,0,0,1-2,.42A1.24,1.24,0,0,1,253.35,25.07Z"/><path d="M257.42,50.62c.79-2.64,1.43-4.67,1.92-6.11s1-2.72,1.44-3.86a29.89,29.89,0,0,1,1.63-3.31,21.44,21.44,0,0,1,2-2.92,9.78,9.78,0,0,1,2.33-2.09,4.51,4.51,0,0,1,5.43.29c1.57,3.94,2.54,6.57,2.89,7.91a70.79,70.79,0,0,1,1.3,8.32c.35-.91.76-1.86,1.21-2.86s.89-2,1.33-3a34.37,34.37,0,0,0,2.3-5.9,10.14,10.14,0,0,1,5.37-6.2,10,10,0,0,1,6.6-1.12,2.56,2.56,0,0,1,1.75,1,1.42,1.42,0,0,1,0,1.6,2.13,2.13,0,0,0-.36,1.56q.15.73.27,1.74a8.75,8.75,0,0,1-.95,4.81,48.17,48.17,0,0,0-2.3,5.19q-1.17,3.1-2.39,6.58l-2.45,7.08c-.82,2.4-1.63,4.58-2.41,6.55-1.74,4.52-3.15,7-4.25,7.49a13.05,13.05,0,0,1-3.31,1.6,16,16,0,0,1-3.83,0q-1.53-.12-2.66-4a39.28,39.28,0,0,1-1.18-5.72,48,48,0,0,0-1.29-7,90.41,90.41,0,0,1-3.34,9.67A18.21,18.21,0,0,1,263,70.56c-.34.43-.74,1-1.21,1.71a5.42,5.42,0,0,1-3.66,3.13,6.65,6.65,0,0,1-4.48.29c-1.46-.47-1.89-1.37-1.3-2.71Q253,65.9,257.42,50.62Z"/><path d="M317.07,44.13c0-1.18-.41-1.77-1.24-1.77a3.49,3.49,0,0,0-1.12.23c-.43.16-.85.3-1.24.42a11.83,11.83,0,0,0-3.39,2.56c-.81.93-1.62,2-2.45,3.1a20.17,20.17,0,0,0-2.12,3.66A24.56,24.56,0,0,0,304.15,56q-1.71,6.32,1.3,8.49a4.26,4.26,0,0,0,2.62.86,4.41,4.41,0,0,0,2.24-.56c.57-.36,1.13-.69,1.69-1a6,6,0,0,1,1.91-.67,5.82,5.82,0,0,1,2.72.29c1.08.34,1.66.78,1.74,1.33a6.12,6.12,0,0,1,0,1.71,6.13,6.13,0,0,0,0,1.59c.06.47.48.77,1.27.89q1.11,1.41-1.42,3.42l-1.24,1a22.19,22.19,0,0,1-10.8,3.6,18.21,18.21,0,0,1-7.67-1.3q-6.08-2.3-6.84-10.32a32.06,32.06,0,0,1,1.89-15.4,39.87,39.87,0,0,1,7.31-12.45q4.43-5.25,8.74-6.84a19.49,19.49,0,0,1,11.09-2.07q6.31.82,8.26,5.37t-.65,10.92a6.85,6.85,0,0,1-3.36,3.54,9.41,9.41,0,0,1-4.61,1.18c-1.65,0-2.71-.53-3.18-1.57A5.6,5.6,0,0,1,317.07,44.13Z"/><path d="M349.34,33.63q-2.07,6.42-3.8,11.62t-3.19,9.56c-1,2.91-1.86,5.59-2.68,8s-1.6,4.81-2.3,7a6.87,6.87,0,0,1-3.84,5.49,10.47,10.47,0,0,1-4.48.88,10.21,10.21,0,0,1-3.9-.56,2.86,2.86,0,0,1-1.68-1.62,4.3,4.3,0,0,1,0-2.57c.26-1,.7-2.38,1.33-4.13s1.42-4.12,2.39-7.11,2-6,3-9.08a133.44,133.44,0,0,1,6.25-15.93,5.81,5.81,0,0,1,1.77-2.21,7.43,7.43,0,0,1,1.71-.83,11.24,11.24,0,0,0,1.54-.62,3.22,3.22,0,0,0,1.26-1.77,3.34,3.34,0,0,1,2.07-2,4.32,4.32,0,0,1,2.83-.09,3.41,3.41,0,0,1,2,1.89C350.12,30.67,350,32,349.34,33.63Z"/><path d="M378.66,33.51a4.78,4.78,0,0,1,2.54,3.12q-1.18,6.61-2.12,13.13t-1.83,10.92c-.59,2.93-1,5.12-1.21,6.58s-.46,2.91-.74,4.36L375,72.86c-.08.43-.16.84-.24,1.21s-.16.78-.23,1.21A5.67,5.67,0,0,1,370,77.17a7,7,0,0,1-4.78-1.54c-.71-.55-.82-1.71-.35-3.48a13.66,13.66,0,0,0,.38-2.74c.06-1.12.13-2.06.21-2.8v-.12a12.91,12.91,0,0,0-3.19,1.68l-1.77,1.3a2.56,2.56,0,0,1-.94.41,9.37,9.37,0,0,1-1.06.21,3.24,3.24,0,0,0-1.54.35q-3.42,6.14-6.13,6.85a7.57,7.57,0,0,1-3.43.26,3.73,3.73,0,0,1-2.71-2q-1.89-1.77.94-9.68,1.54-4.19,4.4-10.06t5.52-10.24A75.45,75.45,0,0,1,368.1,29.73c.75-.31,1.56-.68,2.42-1.09a6.74,6.74,0,0,1,2.57-.68,8.59,8.59,0,0,1,2.62.3,6.35,6.35,0,0,1,2.3,1.06Q380.2,31,378.66,33.51ZM366,49c-.83,2.36-1.65,4.54-2.48,6.52s-1.53,3.73-2.12,5.23l4.66-.18c.31-2.52.67-5,1.06-7.49s.77-5,1.12-7.44Zm-1.59,11.8a11.43,11.43,0,0,0,1.65-.11v-.06l-1.42.12C364.25,60.8,364.17,60.82,364.45,60.82Z"/><path d="M23.61,136.88c2.28.23,4,.35,5.1.35a41.93,41.93,0,0,0,5.11-.47c.71.23,1.12.53,1.24.88a2.69,2.69,0,0,1,.11,1.09,3.37,3.37,0,0,0,.06,1.1c.08.35.46.64,1.12.88.36.12.47.46.33,1a5.21,5.21,0,0,1-1,1.86,10.48,10.48,0,0,1-4.61,3.54,42.06,42.06,0,0,1-6.66,1.24,44.43,44.43,0,0,1-8.74-.29q-5.19-.94-5-4.31a62.13,62.13,0,0,1,5.43-24.9q1.77-4.06,4-8.55a5.77,5.77,0,0,0,.56-2.13c.06-.79.11-1.55.15-2.3a7.51,7.51,0,0,1,.35-2,1.92,1.92,0,0,1,1.24-1.23q12.27-4.91,19.41-3.78c1.65,0,2.75.6,3.28,1.68a4.75,4.75,0,0,1,.17,3.63A9.05,9.05,0,0,1,42.87,108a8,8,0,0,1-4.51,2.18,42.2,42.2,0,0,0-4.25,1.36A4.58,4.58,0,0,0,32,113.39c-.55.87-1.06,1.7-1.54,2.48a8.47,8.47,0,0,0-1,2.54l-.23,1.3A4.89,4.89,0,0,0,32,120c1.08-.14,2.08-.27,3-.41a6.51,6.51,0,0,1,2.24,0c.57.12.69.7.35,1.74a14.09,14.09,0,0,1-1.82,3.51A7.54,7.54,0,0,1,32,127.67c-1,.2-1.72.35-2.1.44l-.85.21c-.28,0-1.06.1-2.36.18a28.48,28.48,0,0,0-3.36,7.31C23.16,136.52,23.26,136.88,23.61,136.88Z"/><path d="M51,147.73a15.11,15.11,0,0,1-5.52-.74,10.92,10.92,0,0,1-4.07-2.33,6.52,6.52,0,0,1-2-3.45,5.82,5.82,0,0,1,.71-4q1.53-2.47,6.14-1.47a37.41,37.41,0,0,0,4.8.76,5.17,5.17,0,0,0,2.28-.35q4.31-1.43,4.83-3.07c.24-.83-.27-1.79-1.53-2.89-.51-.47-1.08-.94-1.71-1.42a11.34,11.34,0,0,1-1.59-1.41,17.15,17.15,0,0,1-4.64-5,10.19,10.19,0,0,1-1.38-6.22,21.41,21.41,0,0,1,1.12-5.58,16,16,0,0,1,7.73-8.82A31.52,31.52,0,0,1,62.61,99a24.21,24.21,0,0,1,9.67-.18,7.14,7.14,0,0,1,2.84,1.12c.78.55,1.57,1.12,2.36,1.71,1.37,1.38,1.71,2.78,1,4.19a3.59,3.59,0,0,1-1.3,1.54,3.69,3.69,0,0,1-1.89.64,3,3,0,0,1-.59,2.36q-1.35,1.37-4.72,1.77-4.83-.34-6.55.54c-1.33.7-1.82,2.24-1.47,4.6a3,3,0,0,0,1,1.59q.85.83,2,1.77c.77.63,1.57,1.34,2.42,2.12a13.35,13.35,0,0,1,2.21,2.72q3.3,5.43-.53,12.68-2.83,5.43-9.68,8.15A22.57,22.57,0,0,1,51,147.73Z"/><path d="M94.32,129.18q-1.62,4.62-3.27,8.88c-1.11,2.83-2,5-2.75,6.46a12,12,0,0,1-1.92,3,4.57,4.57,0,0,1-1.68,1.13,4.4,4.4,0,0,1-1.71.23l-1.74-.12q-4.95-.76-3.07-7.14,1.25-5.07,2-8.29t1.27-5.31c.33-1.39.62-2.55.85-3.48s.49-1.83.77-2.74.62-1.93,1-3.07,1-2.65,1.63-4.54a7.48,7.48,0,0,1-4-.47q-2.59-1.12-2.12-4.84a5.41,5.41,0,0,1,1.83-3.19q.82-.77,1.95-1.65,2.3-1.83,9.14-3.89a40,40,0,0,1,12.15-2,5.14,5.14,0,0,1,2.81.33,6.18,6.18,0,0,1,2.33,1.5,3.09,3.09,0,0,1,.91,2.07c0,.74-.46,1.41-1.44,2a2.62,2.62,0,0,0-1,1.56c-.19.73-.41,1.5-.64,2.31a8.15,8.15,0,0,1-1,2.21,2.85,2.85,0,0,1-2.15,1.18,6.5,6.5,0,0,1-2.15.59c-.93.12-1.54.2-1.83.26s-.47.17-.5.33q-1.06,3.12-2.54,7.58T94.32,129.18Zm-8-15.61q-.12,0-.12,0s0,0,.12,0Z"/><path d="M123.61,101.59v.12s0,.06,0,.06,0,0,0,.06V102h.06l.36.94q.59,1.71-3.07,10.62-3.9,9.49-3.6,14.81.64,3.78,6.31-6.08,4.48-7.67,8.68-16.81c.35-.83.72-1.68,1.12-2.57a7.23,7.23,0,0,1,1.47-2.21,4,4,0,0,1,4.72-1.12A4.87,4.87,0,0,1,141.93,98a4.71,4.71,0,0,1,2.42-.17,3.68,3.68,0,0,1,2,1.09,3.35,3.35,0,0,1,.88,2.27q.18,1.18-1.2,5.61t-2.57,8.08q-1.19,3.66-2.42,8-3,10.21-4.78,19.24a4,4,0,0,1-1.62,3.12,8.14,8.14,0,0,1-3.48,1.63,7.38,7.38,0,0,1-3.63-.15,2.88,2.88,0,0,1-2.18-2.95c0-.43,0-.87-.06-1.3q.11,2-2.89,3.42l-1.54.77a13,13,0,0,1-8.67-.53,13.4,13.4,0,0,1-3.81-2.39,7.86,7.86,0,0,1-2.33-3.57q-2.07-6.6.77-17.35a78,78,0,0,1,2.89-9q1.71-4.36,2.51-6.32c.53-1.29.91-2.19,1.15-2.68s.49-1,.77-1.45a10.81,10.81,0,0,1,1.71-2.71l.7-.65a.53.53,0,0,1,.24-.15,1.27,1.27,0,0,0,.3-.14,3,3,0,0,1,1-.42l.82-.17h.36a3.8,3.8,0,0,1,3,.7s0,.06.12.06l.47.42.17.17.18.24s0,.06,0,.06,0,0,0,.06l.06.06V101a.05.05,0,0,1,.06.06v.06a.17.17,0,0,0,.12.06v.06s0,.06,0,.06a0,0,0,0,1,0,0,.21.21,0,0,0,0,.09v.06A.17.17,0,0,0,123.61,101.59Zm1.6,39.3v-.18a1,1,0,0,0-.06.47.32.32,0,0,1,.06-.23Z"/><path d="M180.49,120.36a34.09,34.09,0,0,1-.91,5.19,26.76,26.76,0,0,1-2,5.19,34.32,34.32,0,0,1-3,4.9,32.71,32.71,0,0,1-3.86,4.36,23.38,23.38,0,0,1-4.55,3.37,14.36,14.36,0,0,1-10,2.18,5,5,0,0,1-3.15,2.92,7.09,7.09,0,0,1-4.13,0,7.75,7.75,0,0,1-3.57-2.33,6.75,6.75,0,0,1-1.54-4.69,45.93,45.93,0,0,1,.42-6.11,53.47,53.47,0,0,1,1.12-6,63.91,63.91,0,0,1,2.77-9q3.9-9.51,4.42-13.34c.52-3.42,1.46-5.54,2.84-6.37a10.72,10.72,0,0,1,6.49-1.71,16.69,16.69,0,0,1,5.54,1.47,34.2,34.2,0,0,1,8.79,6.55Q181.37,112,180.49,120.36Zm-23.19,17.7a24.3,24.3,0,0,0,4.87-3.16c1.24-1.08,2.41-2.08,3.51-3a15.42,15.42,0,0,0,3.72-6q2.59-7.66-3.31-11.62c-.59-.43-1.47-1-2.65-1.77a17.89,17.89,0,0,0-1.21,3.95,30.58,30.58,0,0,1-1,4l-1.6,5.2-1.29,5.6a19.93,19.93,0,0,1-.36,2.27c-.16.73-.29,1.49-.41,2.27Z"/><path d="M211.46,104.31a4.78,4.78,0,0,1,2.54,3.12q-1.19,6.61-2.12,13.13t-1.83,10.92c-.59,2.93-1,5.12-1.21,6.58s-.46,2.91-.74,4.36l-.35,1.24c-.08.43-.16.84-.24,1.21s-.16.78-.23,1.21a5.67,5.67,0,0,1-4.49,1.89,7,7,0,0,1-4.78-1.54c-.71-.55-.82-1.71-.35-3.48a13,13,0,0,0,.38-2.74c.06-1.12.13-2.06.21-2.8v-.12a12.91,12.91,0,0,0-3.19,1.68l-1.77,1.3a2.56,2.56,0,0,1-.94.41,9,9,0,0,1-1.06.21,3.24,3.24,0,0,0-1.54.35q-3.42,6.13-6.13,6.85a7.52,7.52,0,0,1-3.42.26,3.72,3.72,0,0,1-2.72-2q-1.89-1.77.94-9.68,1.54-4.19,4.4-10.06t5.52-10.24a75.45,75.45,0,0,1,12.56-15.81c.75-.31,1.56-.68,2.42-1.09a6.74,6.74,0,0,1,2.57-.68,8.59,8.59,0,0,1,2.62.3,6.48,6.48,0,0,1,2.31,1.06C212.27,101.22,212.49,102.62,211.46,104.31Zm-12.62,15.51c-.83,2.36-1.65,4.54-2.48,6.52s-1.53,3.73-2.12,5.23l4.66-.18c.31-2.52.67-5,1.06-7.49s.77-5,1.12-7.44Zm-1.59,11.8a11.43,11.43,0,0,0,1.65-.11v-.06l-1.42.12C197.05,131.6,197,131.62,197.25,131.62Z"/><path d="M216.13,121.42c.78-2.64,1.42-4.67,1.91-6.11s1-2.72,1.45-3.86a28.16,28.16,0,0,1,1.62-3.31,21.49,21.49,0,0,1,2-2.92,9.41,9.41,0,0,1,2.33-2.09,4.52,4.52,0,0,1,5.43.29c1.57,3.94,2.53,6.57,2.89,7.91a71.17,71.17,0,0,1,1.29,8.32c.36-.91.76-1.86,1.21-2.86s.9-2,1.33-3a33.54,33.54,0,0,0,2.3-5.9,10.2,10.2,0,0,1,5.37-6.2,10,10,0,0,1,6.61-1.12,2.51,2.51,0,0,1,1.74,1,1.42,1.42,0,0,1,0,1.6,2.16,2.16,0,0,0-.35,1.56c.09.49.18,1.07.26,1.74a8.84,8.84,0,0,1-.94,4.81,44.51,44.51,0,0,0-2.3,5.19q-1.18,3.1-2.39,6.58t-2.45,7.08c-.83,2.4-1.63,4.58-2.42,6.55q-2.59,6.78-4.25,7.49a12.88,12.88,0,0,1-3.3,1.6,16.1,16.1,0,0,1-3.84,0c-1-.08-1.91-1.4-2.65-4a36.77,36.77,0,0,1-1.18-5.72,45.72,45.72,0,0,0-1.3-7,88.89,88.89,0,0,1-3.33,9.67,18,18,0,0,1-1.48,2.66c-.33.43-.74,1-1.21,1.71a5.42,5.42,0,0,1-3.66,3.13,6.64,6.64,0,0,1-4.48.29c-1.46-.47-1.89-1.38-1.3-2.71Q211.7,136.7,216.13,121.42Z"/><path d="M269.84,129.18q-1.62,4.62-3.27,8.88c-1.1,2.83-2,5-2.74,6.46a12.25,12.25,0,0,1-1.92,3,4.57,4.57,0,0,1-1.68,1.13,4.4,4.4,0,0,1-1.71.23l-1.74-.12q-5-.76-3.07-7.14,1.23-5.07,2-8.29c.51-2.14.94-3.91,1.27-5.31s.62-2.55.86-3.48.49-1.83.76-2.74.62-1.93,1-3.07.95-2.65,1.62-4.54a7.44,7.44,0,0,1-4-.47q-2.59-1.12-2.13-4.84a5.41,5.41,0,0,1,1.83-3.19q.82-.77,1.95-1.65,2.3-1.83,9.14-3.89a40,40,0,0,1,12.16-2,5.1,5.1,0,0,1,2.8.33,6.18,6.18,0,0,1,2.33,1.5,3.11,3.11,0,0,1,.92,2.07c0,.74-.47,1.41-1.45,2a2.61,2.61,0,0,0-1,1.56c-.2.73-.42,1.5-.65,2.31a8.13,8.13,0,0,1-1,2.21,2.87,2.87,0,0,1-2.16,1.18,6.5,6.5,0,0,1-2.15.59c-.93.12-1.54.2-1.83.26s-.46.17-.5.33q-1.07,3.12-2.54,7.58T269.84,129.18Zm-8-15.61q-.12,0-.12,0s0,0,.12,0Z"/><path d="M303.86,104.43q-2.07,6.42-3.81,11.62t-3.18,9.56c-1,2.91-1.86,5.59-2.69,8s-1.59,4.81-2.3,7.05a6.84,6.84,0,0,1-3.83,5.49,10.52,10.52,0,0,1-4.49.88,10.15,10.15,0,0,1-3.89-.56A2.8,2.8,0,0,1,278,144.9a4.3,4.3,0,0,1,0-2.57c.25-1,.69-2.38,1.32-4.13s1.43-4.12,2.39-7.11,2-6,3-9.08A133,133,0,0,1,291,106.08a5.94,5.94,0,0,1,1.77-2.22,7.59,7.59,0,0,1,1.71-.82,10.62,10.62,0,0,0,1.53-.62,3.28,3.28,0,0,0,1.27-1.77,3.3,3.3,0,0,1,2.06-2,4.35,4.35,0,0,1,2.84-.09,3.4,3.4,0,0,1,2,1.89A5,5,0,0,1,303.86,104.43Z"/><path d="M318.67,147.52l-2.28.09c-.76,0-1.82.06-3.15.06s-3.35,0-6-.12q-.95.06-1.89.06a4.37,4.37,0,0,1-1.77-.35c-1.22-.51-2-1.69-2.48-3.54a5.26,5.26,0,0,0-.67-1.83,6.36,6.36,0,0,1-.62-1c-.4-.63-.37-1.67.08-3.13s1-3.25,1.74-5.4,1.52-4.41,2.42-6.81A138.1,138.1,0,0,1,309.76,112c.66-1.5,1.25-2.8,1.74-3.9s.93-2,1.33-2.86.59-1.23.59-1.27q.58-2.24,4.54-3.77a11.12,11.12,0,0,1,7-.83c2.32.59,3.34,2.13,3.07,4.6a39.6,39.6,0,0,1-2.45,7.32c-1.08,2.44-2.31,5-3.69,7.67s-2.87,5.51-4.48,8.5-3.21,6.23-4.78,9.73c0,.16,0,.3.24.41a10.9,10.9,0,0,0,2.15-.47c.92-.27,1.89-.52,2.89-.74a14.53,14.53,0,0,1,3-.32,4,4,0,0,1,2.48.77,2.14,2.14,0,0,0,.53,1.68c.39.41.78.81,1.18,1.21q1.47,1.53.23,4.07a6.34,6.34,0,0,1-4.24,3.36A9.41,9.41,0,0,1,318.67,147.52Z"/><path d="M17.21,168.87l14.66,22.58H32V168.87h3.51v27.85H31.4L16.86,174.37h-.08v22.35H13.27V168.87Z"/><path d="M53.13,168.87,64,196.72h-4.1l-3-8.39H45.09L42,196.72H38.19L49,168.87Zm-.45-5.19a14.51,14.51,0,0,1-1.43-.7,14.72,14.72,0,0,0-1.44-.7,3.83,3.83,0,0,0-1.52-.31,3.37,3.37,0,0,0-2.63,1.09,6.71,6.71,0,0,0-1.39,3.47H46.1a2.07,2.07,0,0,1,2.15-2,3.38,3.38,0,0,1,1.38.31c.46.21.92.45,1.39.71s.94.49,1.4.7a3.59,3.59,0,0,0,1.49.31,3.69,3.69,0,0,0,2.59-1A6.36,6.36,0,0,0,58,161.85H56.05a2.92,2.92,0,0,1-.6,1.58,1.7,1.7,0,0,1-1.35.57A3.52,3.52,0,0,1,52.68,163.68Zm3,21.53-4.64-13H51l-4.72,13Z"/><path d="M66,177.32a13.87,13.87,0,0,1,2.52-4.67,12.26,12.26,0,0,1,4.17-3.23,14.55,14.55,0,0,1,11.62,0,12.2,12.2,0,0,1,4.18,3.23A13.85,13.85,0,0,1,91,177.32a18.26,18.26,0,0,1,0,11,13.71,13.71,0,0,1-2.51,4.66,11.93,11.93,0,0,1-4.18,3.22,14.78,14.78,0,0,1-11.62,0,12,12,0,0,1-4.17-3.22A13.73,13.73,0,0,1,66,188.27a18.47,18.47,0,0,1,0-11ZM69.43,187a11.19,11.19,0,0,0,1.71,3.68,8.73,8.73,0,0,0,3,2.64,10.12,10.12,0,0,0,8.73,0,8.79,8.79,0,0,0,3-2.64A11.21,11.21,0,0,0,87.6,187a16,16,0,0,0,0-8.31A11.21,11.21,0,0,0,85.88,175a8.79,8.79,0,0,0-3-2.64,10.12,10.12,0,0,0-8.73,0,8.73,8.73,0,0,0-3,2.64,11.19,11.19,0,0,0-1.71,3.68,16,16,0,0,0,0,8.31Z"/><path d="M126.44,168.87V172H110.92v8.85h14.47V184H110.92v9.64h15.64v3.12H107.22V168.87Zm-9-8.31-3.74,6.32h2.5l5.49-6.32Z"/><path d="M153.55,168.87l10.88,27.85h-4.09l-3.05-8.39H145.51l-3.12,8.39h-3.78l10.84-27.85Zm2.57,16.34-4.64-13h-.08l-4.72,13Z"/><path d="M180.91,192.54a6.42,6.42,0,0,1-1.37,2.44A6.71,6.71,0,0,1,177,196.7a10.44,10.44,0,0,1-3.92.64,8.26,8.26,0,0,1-6-2.05q-2.1-2-2.1-6v-1.72h3.7v1.17a11.85,11.85,0,0,0,.2,2.23,4.71,4.71,0,0,0,.68,1.75,3.21,3.21,0,0,0,1.36,1.15,5.42,5.42,0,0,0,2.25.41c1.69,0,2.85-.45,3.49-1.36a6.36,6.36,0,0,0,1-3.67V168.87h3.71v20.91A9.66,9.66,0,0,1,180.91,192.54Z"/><path d="M206.78,194.67q-2.85,2.67-8.11,2.67t-8.4-2.55q-3-2.56-3-8.13V168.87H191v17.79a7.54,7.54,0,0,0,2,5.67,7.88,7.88,0,0,0,5.73,1.93,7.11,7.11,0,0,0,5.4-1.93,7.87,7.87,0,0,0,1.86-5.67V168.87h3.7v17.79Q209.63,192,206.78,194.67Z"/><path d="M225.11,168.87q6.44,0,9.91,3.28t3.47,10a22.5,22.5,0,0,1-.78,6.22,11.59,11.59,0,0,1-2.42,4.56,10.41,10.41,0,0,1-4.17,2.83,16.71,16.71,0,0,1-6,1h-9.55V168.87Zm.31,24.73a14.15,14.15,0,0,0,1.56-.1,8.27,8.27,0,0,0,2-.47,8.63,8.63,0,0,0,2.09-1.07,7,7,0,0,0,1.85-1.91,10.57,10.57,0,0,0,1.35-3,16,16,0,0,0,.52-4.39,19,19,0,0,0-.48-4.47,8.63,8.63,0,0,0-1.6-3.35,7.05,7.05,0,0,0-2.87-2.11,11.43,11.43,0,0,0-4.33-.72h-6.24V193.6Z"/><path d="M254.67,168.87l10.89,27.85h-4.1l-3-8.39H246.64l-3.12,8.39h-3.78l10.84-27.85Zm2.58,16.34-4.64-13h-.08l-4.72,13Z"/><path d="M28.76,237a10.12,10.12,0,0,1-6.28,1.89,11.35,11.35,0,0,1-4.63-.86,9.13,9.13,0,0,1-3.29-2.4,10.38,10.38,0,0,1-2-3.7,17.7,17.7,0,0,1-.76-4.69,13.25,13.25,0,0,1,.78-4.64,11,11,0,0,1,2.17-3.66,9.91,9.91,0,0,1,3.31-2.41,10.13,10.13,0,0,1,4.19-.86,9.13,9.13,0,0,1,4.93,1.23A9.72,9.72,0,0,1,30.32,220,12.28,12.28,0,0,1,32,224.14a17.57,17.57,0,0,1,.36,4.25H15.68a8.77,8.77,0,0,0,.35,2.78,6,6,0,0,0,3.44,3.93,7.55,7.55,0,0,0,3.14.6,6.37,6.37,0,0,0,3.8-1.07,5.24,5.24,0,0,0,2-3.27H32A8.9,8.9,0,0,1,28.76,237Zm-.89-14.27a6.19,6.19,0,0,0-1.33-2,6.35,6.35,0,0,0-2-1.34,6.24,6.24,0,0,0-2.51-.49,6.35,6.35,0,0,0-2.56.49,6,6,0,0,0-2,1.36,6.61,6.61,0,0,0-1.29,2,7.84,7.84,0,0,0-.56,2.43H28.45A7.26,7.26,0,0,0,27.87,222.72ZM23.34,205.3l-4.13,7H22l6.06-7Z"/><path d="M64.27,238.41v-3h-.08a5.41,5.41,0,0,1-2.84,2.67,10.93,10.93,0,0,1-4.26.81,10,10,0,0,1-4.49-.94,9.16,9.16,0,0,1-3.18-2.54,10.94,10.94,0,0,1-1.92-3.7,15.14,15.14,0,0,1-.64-4.47,15.88,15.88,0,0,1,.62-4.47,10.79,10.79,0,0,1,1.89-3.68,9.33,9.33,0,0,1,3.18-2.49,10.1,10.1,0,0,1,4.46-.93,10.3,10.3,0,0,1,1.84.18,8.73,8.73,0,0,1,2,.58,8.3,8.3,0,0,1,1.87,1.07,5.94,5.94,0,0,1,1.49,1.66h.08V207.71h3.66v30.7Zm-13.13-7.89a8.18,8.18,0,0,0,1.24,2.65A6.09,6.09,0,0,0,54.53,235a6.54,6.54,0,0,0,3.08.69,6,6,0,0,0,5.24-2.64A8.09,8.09,0,0,0,64,230.37a13,13,0,0,0,.36-3.05,12.67,12.67,0,0,0-.39-3.16,7.61,7.61,0,0,0-1.22-2.69,6.26,6.26,0,0,0-2.17-1.87,6.85,6.85,0,0,0-3.23-.71,6.26,6.26,0,0,0-3.14.73,5.81,5.81,0,0,0-2.06,1.94,8.33,8.33,0,0,0-1.12,2.75,14.55,14.55,0,0,0-.34,3.18A11.07,11.07,0,0,0,51.14,230.52Z"/><path d="M73.77,212.18v-4.47h3.66v4.47Zm3.66,4v22.23H73.77V216.18Z"/><path d="M86.42,216.18v4.69h.08a9.89,9.89,0,0,1,3.27-4,8.26,8.26,0,0,1,4.9-1.21v3.87a10.35,10.35,0,0,0-3.74.61,5.91,5.91,0,0,0-2.49,1.76,7.3,7.3,0,0,0-1.38,2.82,15,15,0,0,0-.43,3.8v9.89H83V216.18Z"/><path d="M112.39,237a10.12,10.12,0,0,1-6.28,1.89,11.27,11.27,0,0,1-4.62-.86,9,9,0,0,1-3.29-2.4,10.25,10.25,0,0,1-2-3.7,17.31,17.31,0,0,1-.75-4.69,13.25,13.25,0,0,1,.77-4.64,11.14,11.14,0,0,1,2.17-3.66,10,10,0,0,1,3.31-2.41,10.2,10.2,0,0,1,4.19-.86,9.13,9.13,0,0,1,4.93,1.23A9.85,9.85,0,0,1,114,220a12.26,12.26,0,0,1,1.63,4.13,18.12,18.12,0,0,1,.37,4.25H99.32a8.77,8.77,0,0,0,.34,2.78,6.3,6.3,0,0,0,1.25,2.32,6.12,6.12,0,0,0,2.19,1.61,7.58,7.58,0,0,0,3.14.6,6.35,6.35,0,0,0,3.8-1.07,5.24,5.24,0,0,0,2-3.27h3.61A8.86,8.86,0,0,1,112.39,237Zm-.88-14.27a6.22,6.22,0,0,0-1.34-2,6.43,6.43,0,0,0-2-1.34,6.26,6.26,0,0,0-2.52-.49,6.35,6.35,0,0,0-2.56.49,6,6,0,0,0-2,1.36,6.61,6.61,0,0,0-1.29,2,7.56,7.56,0,0,0-.55,2.43h12.77A7.51,7.51,0,0,0,111.51,222.72Z"/><path d="M120,212.18v-4.47h3.65v4.47Zm3.65,4v22.23H120V216.18Z"/><path d="M138.79,216.18v3.23h-4.43v13.8a3.63,3.63,0,0,0,.11,1,1,1,0,0,0,.41.6,1.66,1.66,0,0,0,.83.28,12.84,12.84,0,0,0,1.4.07h1.68v3.22H136a13.16,13.16,0,0,1-2.43-.19,3.6,3.6,0,0,1-1.63-.71,3,3,0,0,1-.92-1.46,8.16,8.16,0,0,1-.31-2.5V219.41h-3.78v-3.23h3.78v-6.66h3.66v6.66Z"/><path d="M142.31,222.74a10.4,10.4,0,0,1,2.07-3.7,9.66,9.66,0,0,1,3.4-2.47,12.36,12.36,0,0,1,9.31,0,9.73,9.73,0,0,1,3.37,2.47,10.23,10.23,0,0,1,2.06,3.7,15.48,15.48,0,0,1,0,9.14,10.18,10.18,0,0,1-2.06,3.67,9.43,9.43,0,0,1-3.37,2.45,12.75,12.75,0,0,1-9.31,0,9.37,9.37,0,0,1-3.4-2.45,10.35,10.35,0,0,1-2.07-3.67,15.7,15.7,0,0,1,0-9.14Zm3.72,8.17a7.58,7.58,0,0,0,1.49,2.62,6.59,6.59,0,0,0,9.8,0,7.41,7.41,0,0,0,1.48-2.62,12.2,12.2,0,0,0,0-7.18,7.64,7.64,0,0,0-1.48-2.65,6.39,6.39,0,0,0-2.21-1.63,6.74,6.74,0,0,0-5.38,0,6.39,6.39,0,0,0-2.21,1.63,7.82,7.82,0,0,0-1.49,2.65,12.42,12.42,0,0,0,0,7.18Z"/></svg>