<svg id="Layer_1" data-name="Layer 1" xmlns="http://www.w3.org/2000/svg" viewBox="0 0 391.46 275.35"><path d="M40.56,60.88a16.3,16.3,0,0,1-4.93,2.57,11.55,11.55,0,0,1-5.1.44,7.46,7.46,0,0,1-4.37-2.18,55.62,55.62,0,0,0-2.24,10.38,4.54,4.54,0,0,1-.83,1.71A6.45,6.45,0,0,1,18.43,78a9.51,9.51,0,0,1-6.61-.35,6.12,6.12,0,0,1-2.36-1.89,4.87,4.87,0,0,1-.94-3,217.39,217.39,0,0,1,7.85-23.13c.55-1.25,1-2.28,1.32-3.06s.64-1.46.92-2,.52-1,.74-1.45.48-.87.79-1.38q1.07-1.77,2.45-4.16A28.84,28.84,0,0,1,25,34a13.26,13.26,0,0,1,2.07-2,19.59,19.59,0,0,1,2.42-1.62c.88-.51,2-1.18,3.33-2a10.21,10.21,0,0,1,15,5q1.77,4.36.59,11.74Q46.57,56.29,40.56,60.88ZM28.23,55.63q4.83-1.07,6.72-6.31a19.66,19.66,0,0,0,.65-10,46.72,46.72,0,0,0-2.45,4.78c-.73,1.65-1.38,3.13-2,4.42C29.88,51.41,28.89,53.78,28.23,55.63Z"/><path d="M59.38,66.08c2.28.23,4,.35,5.1.35a42,42,0,0,0,5.1-.47c.71.23,1.13.53,1.24.88a2.53,2.53,0,0,1,.12,1.09A3.37,3.37,0,0,0,71,69c.08.35.45.64,1.12.88.35.12.46.46.33,1a5.26,5.26,0,0,1-1,1.86,10.45,10.45,0,0,1-4.6,3.54,41.94,41.94,0,0,1-6.67,1.24,44.35,44.35,0,0,1-8.73-.29q-5.19-.95-5-4.31a62.11,62.11,0,0,1,5.42-24.9q1.77-4.06,4-8.55a5.77,5.77,0,0,0,.56-2.13c.06-.79.1-1.55.14-2.3a7.5,7.5,0,0,1,.36-2,1.9,1.9,0,0,1,1.24-1.23Q70.47,27,77.61,28.08q2.48.06,3.27,1.68a4.8,4.8,0,0,1,.18,3.63,9.05,9.05,0,0,1-2.42,3.78,8,8,0,0,1-4.51,2.18,42.2,42.2,0,0,0-4.25,1.36,4.58,4.58,0,0,0-2.12,1.88c-.56.87-1.07,1.7-1.54,2.48a8.21,8.21,0,0,0-1,2.54L65,48.91a4.93,4.93,0,0,0,2.75.32c1.08-.14,2.08-.27,3-.41a6.57,6.57,0,0,1,2.25,0c.57.12.68.7.35,1.74A13.83,13.83,0,0,1,71.5,54a7.47,7.47,0,0,1-3.74,2.83c-1,.2-1.73.35-2.1.44l-.86.21c-.27,0-1.06.1-2.35.18A28.6,28.6,0,0,0,59.08,65C58.92,65.72,59,66.08,59.38,66.08Z"/><path d="M87.28,73.69q-.52,2.36-3.65,2.89a9,9,0,0,1-5.49-.65c-1.93-.83-2.77-2-2.54-3.48Q75.26,69,79.2,57.58,85.1,40.41,91,33a9.31,9.31,0,0,1,2.63-2.45,17.45,17.45,0,0,1,2.5-1c1-.31,1.93-.6,3-.88a41.9,41.9,0,0,1,5.81-1.15,9.19,9.19,0,0,1,4.93.65A7.52,7.52,0,0,1,113.21,31a10.31,10.31,0,0,1,1.51,4.45,19.14,19.14,0,0,1-.18,5.37,24.12,24.12,0,0,1-1.71,5.67,25.77,25.77,0,0,1-3.13,5.34,18.59,18.59,0,0,1-9.67,7l.59,1c.51.79,1.13,1.65,1.86,2.6s1.45,1.9,2.18,2.89a32.21,32.21,0,0,1,2,2.95,13.07,13.07,0,0,1,1.3,2.77c.63,1.93.14,3.32-1.47,4.19-1.3.79-2.32,1-3.07.59a6.08,6.08,0,0,1-.94-.74,3.9,3.9,0,0,0-1.3-.74q-3.48,1-5.31-1.77a19.83,19.83,0,0,1-1.71-3.24c-.4-1-.73-1.81-1-2.48a17.68,17.68,0,0,0-2.41-3.77c-.44,1.06-.93,2.41-1.48,4.07q-1,3.12-2.24,6.49ZM99.2,39.35q-1.12,2.53-1.53,3.54-.83,2-1.83,4.42-.18,1.3-.3,1.83l.83-.82,1-.48,1.95-1.06a6.57,6.57,0,0,0,1.59-1.18,11.12,11.12,0,0,0,2.36-4.42,3.46,3.46,0,0,1,.21-1.18,5.11,5.11,0,0,0,.26-1.18A1.51,1.51,0,0,0,102.68,37c-.79-.08-1.77.57-3,1.95C99.5,39.21,99.32,39.35,99.2,39.35Z"/><path d="M134.48,30.44a11.23,11.23,0,0,1,.65,2.12,2,2,0,0,1-.83,1.89.3.3,0,0,1-.11.18,16.77,16.77,0,0,1,.23,5.19c-.19,1.61-.45,3.17-.76,4.66a92.75,92.75,0,0,1,5.07-8A31.82,31.82,0,0,1,146,29a9.06,9.06,0,0,1,2.74-1,8.56,8.56,0,0,1,3.1-.09,4.45,4.45,0,0,1,2.45,1.18,3.45,3.45,0,0,1,.85,2.83q-1.65,11.51-3.54,21.45a147.36,147.36,0,0,1-4.89,19v.12h-.06a5,5,0,0,1-3.54,3,8.2,8.2,0,0,1-5,.11c-1.77-.51-2.58-1.45-2.42-2.83l.06-1.36v-.11q.24-1.42.27-1.92a3.74,3.74,0,0,1,.08-.74,14.09,14.09,0,0,1,.51-2.86c.25-.88.44-1.6.56-2.15s.23-1.07.35-1.57.2-.87.24-1.15a18.86,18.86,0,0,1-3.19,3.72,8.72,8.72,0,0,1-5.49,1.53c-1.3-.08-2-.37-2.24-.88a10.47,10.47,0,0,0-.82-2,4,4,0,0,1-.59-1.59,44.44,44.44,0,0,1-3,9.62c-.4.74-.79,1.41-1.18,2-.56,1.3-1.81,2.2-3.78,2.72a8.73,8.73,0,0,1-5.31-.12c-1.73-.55-2.56-1.54-2.48-2.95a33.26,33.26,0,0,1,.86-5.34q.73-3.23,1.74-6.82,3-11.39,4.28-14.81t2.15-5.36a33.56,33.56,0,0,1,3.78-6.61,8,8,0,0,1,6.07-4.49A8.3,8.3,0,0,1,134.48,30.44Z"/><path d="M184.69,33.51a4.8,4.8,0,0,1,2.54,3.12Q186,43.25,185.1,49.76t-1.83,10.92q-.89,4.4-1.2,6.58c-.22,1.45-.47,2.91-.74,4.36L181,72.86c-.08.43-.15.84-.23,1.21s-.16.78-.24,1.21A5.64,5.64,0,0,1,176,77.17a7,7,0,0,1-4.78-1.54q-1.06-.82-.36-3.48a12.9,12.9,0,0,0,.39-2.74c.06-1.12.13-2.06.2-2.8v-.12a12.84,12.84,0,0,0-3.18,1.68l-1.77,1.3a2.62,2.62,0,0,1-1,.41,8.58,8.58,0,0,1-1.06.21,3.15,3.15,0,0,0-1.53.35q-3.42,6.14-6.14,6.85a7.52,7.52,0,0,1-3.42.26,3.73,3.73,0,0,1-2.71-2q-1.89-1.77.94-9.68a108.71,108.71,0,0,1,4.4-10.06q2.85-5.87,5.51-10.24a75.81,75.81,0,0,1,12.57-15.81c.75-.31,1.55-.68,2.42-1.09a6.69,6.69,0,0,1,2.57-.68,8.59,8.59,0,0,1,2.62.3,6.51,6.51,0,0,1,2.3,1.06C185.5,30.42,185.71,31.82,184.69,33.51ZM172.06,49c-.82,2.36-1.65,4.54-2.47,6.52s-1.54,3.73-2.13,5.23l4.66-.18c.32-2.52.67-5,1.07-7.49s.76-5,1.12-7.44Zm-1.59,11.8a11.43,11.43,0,0,0,1.65-.11v-.06l-1.41.12C170.27,60.8,170.2,60.82,170.47,60.82Z"/><path d="M189.35,50.62c.79-2.64,1.43-4.67,1.92-6.11s1-2.72,1.44-3.86a29.89,29.89,0,0,1,1.63-3.31,21.44,21.44,0,0,1,2-2.92,9.78,9.78,0,0,1,2.33-2.09,4.51,4.51,0,0,1,5.43.29c1.57,3.94,2.54,6.57,2.89,7.91a70.79,70.79,0,0,1,1.3,8.32c.35-.91.76-1.86,1.21-2.86s.89-2,1.33-3a34.37,34.37,0,0,0,2.3-5.9,10.14,10.14,0,0,1,5.37-6.2,10,10,0,0,1,6.6-1.12,2.56,2.56,0,0,1,1.75,1,1.42,1.42,0,0,1,0,1.6,2.13,2.13,0,0,0-.36,1.56q.15.73.27,1.74a8.75,8.75,0,0,1-.95,4.81,48.17,48.17,0,0,0-2.3,5.19c-.79,2.07-1.58,4.26-2.39,6.58l-2.45,7.08c-.82,2.4-1.63,4.58-2.41,6.55-1.74,4.52-3.15,7-4.25,7.49a13.05,13.05,0,0,1-3.31,1.6,16,16,0,0,1-3.83,0c-1-.08-1.91-1.4-2.66-4A39.28,39.28,0,0,1,201,65.25a48,48,0,0,0-1.29-7,90.41,90.41,0,0,1-3.34,9.67,18.21,18.21,0,0,1-1.47,2.66c-.34.43-.74,1-1.21,1.71a5.42,5.42,0,0,1-3.66,3.13,6.65,6.65,0,0,1-4.48.29c-1.46-.47-1.89-1.37-1.3-2.71Q184.93,65.9,189.35,50.62Z"/><path d="M235.84,66.08c2.28.23,4,.35,5.11.35a42,42,0,0,0,5.1-.47c.71.23,1.12.53,1.24.88a2.7,2.7,0,0,1,.12,1.09,3.67,3.67,0,0,0,.05,1.1c.08.35.46.64,1.13.88.35.12.46.46.32,1a5.21,5.21,0,0,1-1,1.86,10.51,10.51,0,0,1-4.6,3.54,42.34,42.34,0,0,1-6.67,1.24,44.31,44.31,0,0,1-8.73-.29q-5.2-.95-5-4.31a62.13,62.13,0,0,1,5.43-24.9q1.77-4.06,4-8.55a5.77,5.77,0,0,0,.56-2.13c.06-.79.11-1.55.15-2.3a7.93,7.93,0,0,1,.35-2,1.92,1.92,0,0,1,1.24-1.23q12.27-4.91,19.41-3.78c1.65,0,2.75.6,3.28,1.68a4.75,4.75,0,0,1,.17,3.63,9.13,9.13,0,0,1-2.41,3.78,8,8,0,0,1-4.52,2.18,42.2,42.2,0,0,0-4.25,1.36,4.58,4.58,0,0,0-2.12,1.88c-.55.87-1.06,1.7-1.53,2.48a8.24,8.24,0,0,0-1,2.54l-.23,1.3a4.89,4.89,0,0,0,2.74.32c1.08-.14,2.08-.27,3-.41a6.51,6.51,0,0,1,2.24,0q.85.18.36,1.74A14.51,14.51,0,0,1,248,54a7.54,7.54,0,0,1-3.75,2.83c-1,.2-1.72.35-2.09.44l-.86.21c-.28,0-1.06.1-2.36.18A28.48,28.48,0,0,0,235.55,65C235.39,65.72,235.49,66.08,235.84,66.08Zm17.53-41a6.09,6.09,0,0,1,.29-1.71,5.29,5.29,0,0,0-.62-2.07c-.33-.59-.66-1.18-1-1.77q-2.77,3.43-4.19,4.84A13.1,13.1,0,0,1,243,26.9Q240.33,28,239,27a1.45,1.45,0,0,1-.65-1.33,4.72,4.72,0,0,1,.88-2.33q5.19-6.19,7.56-8.55t3.68-3.57c.89-.81,1.67-1.54,2.36-2.19a7.72,7.72,0,0,1,2.27-1.5c2.09-.91,3.52-.89,4.31.06.24.86-.16,1.81-1.18,2.83v.88a28.85,28.85,0,0,1,.65,6.38c.16.59.33,1.24.5,1.94a6.18,6.18,0,0,1,.15,2.19,4.51,4.51,0,0,1-3,3.71,5.77,5.77,0,0,1-2,.42A1.22,1.22,0,0,1,253.37,25.07Z"/><path d="M257.43,50.62c.79-2.64,1.43-4.67,1.92-6.11s1-2.72,1.45-3.86a28.16,28.16,0,0,1,1.62-3.31,21.49,21.49,0,0,1,2-2.92,9.41,9.41,0,0,1,2.33-2.09,4.5,4.5,0,0,1,5.42.29c1.58,3.94,2.54,6.57,2.9,7.91a71.17,71.17,0,0,1,1.29,8.32c.36-.91.76-1.86,1.21-2.86s.9-2,1.33-3a33.54,33.54,0,0,0,2.3-5.9,10.2,10.2,0,0,1,5.37-6.2,10,10,0,0,1,6.61-1.12,2.56,2.56,0,0,1,1.74,1,1.42,1.42,0,0,1,0,1.6,2.12,2.12,0,0,0-.35,1.56c.09.49.18,1.07.26,1.74a8.84,8.84,0,0,1-.94,4.81,44.51,44.51,0,0,0-2.3,5.19q-1.19,3.1-2.39,6.58t-2.45,7.08c-.83,2.4-1.63,4.58-2.42,6.55q-2.59,6.78-4.25,7.49a12.88,12.88,0,0,1-3.3,1.6,16.1,16.1,0,0,1-3.84,0c-1-.08-1.91-1.4-2.65-4a36.77,36.77,0,0,1-1.18-5.72,47.19,47.19,0,0,0-1.3-7,91.27,91.27,0,0,1-3.33,9.67A18,18,0,0,1,263,70.56c-.33.43-.74,1-1.21,1.71a5.42,5.42,0,0,1-3.66,3.13,6.64,6.64,0,0,1-4.48.29c-1.46-.47-1.89-1.37-1.3-2.71Q253,65.9,257.43,50.62Z"/><path d="M317.08,44.13c0-1.18-.41-1.77-1.24-1.77a3.59,3.59,0,0,0-1.12.23c-.43.16-.84.3-1.24.42a12.12,12.12,0,0,0-3.39,2.56c-.81.93-1.62,2-2.45,3.1a21.41,21.41,0,0,0-2.12,3.66A25.73,25.73,0,0,0,304.16,56q-1.71,6.32,1.3,8.49a4.29,4.29,0,0,0,2.63.86,4.43,4.43,0,0,0,2.24-.56c.57-.36,1.13-.69,1.68-1a6,6,0,0,1,1.92-.67,5.78,5.78,0,0,1,2.71.29c1.08.34,1.66.78,1.74,1.33a6.12,6.12,0,0,1,0,1.71,6.13,6.13,0,0,0,0,1.59c.06.47.48.77,1.27.89.75.94.27,2.08-1.42,3.42-.43.35-.84.69-1.24,1a22.19,22.19,0,0,1-10.79,3.6,18.16,18.16,0,0,1-7.67-1.3q-6.08-2.3-6.85-10.32a32.06,32.06,0,0,1,1.89-15.4,39.7,39.7,0,0,1,7.32-12.45q4.42-5.25,8.73-6.84a19.49,19.49,0,0,1,11.09-2.07q6.31.82,8.26,5.37t-.65,10.92a6.85,6.85,0,0,1-3.36,3.54,9.4,9.4,0,0,1-4.6,1.18c-1.65,0-2.72-.53-3.19-1.57A5.6,5.6,0,0,1,317.08,44.13Z"/><path d="M349.36,33.63q-2.07,6.42-3.81,11.62t-3.19,9.56q-1.44,4.36-2.68,8c-.83,2.46-1.59,4.81-2.3,7a6.85,6.85,0,0,1-3.84,5.49,10.47,10.47,0,0,1-4.48.88,10.15,10.15,0,0,1-3.89-.56,2.85,2.85,0,0,1-1.69-1.62,4.46,4.46,0,0,1,0-2.57c.26-1,.7-2.38,1.33-4.13s1.43-4.12,2.39-7.11,2-6,3-9.08a133.44,133.44,0,0,1,6.25-15.93,5.81,5.81,0,0,1,1.77-2.21,7.43,7.43,0,0,1,1.71-.83,10.75,10.75,0,0,0,1.54-.62,3.28,3.28,0,0,0,1.27-1.77,3.3,3.3,0,0,1,2.06-2,4.32,4.32,0,0,1,2.83-.09,3.39,3.39,0,0,1,2,1.89C350.13,30.67,350,32,349.36,33.63Z"/><path d="M378.68,33.51a4.79,4.79,0,0,1,2.53,3.12q-1.17,6.61-2.12,13.13t-1.83,10.92q-.88,4.4-1.21,6.58c-.21,1.45-.46,2.91-.74,4.36L375,72.86c-.08.43-.16.84-.24,1.21l-.23,1.21A5.65,5.65,0,0,1,370,77.17a7,7,0,0,1-4.78-1.54q-1.07-.82-.36-3.48a12.9,12.9,0,0,0,.39-2.74c.05-1.12.12-2.06.2-2.8v-.12a12.67,12.67,0,0,0-3.18,1.68c-.95.69-1.54,1.12-1.77,1.3a2.69,2.69,0,0,1-.95.41,9,9,0,0,1-1.06.21,3.15,3.15,0,0,0-1.53.35q-3.44,6.14-6.14,6.85a7.52,7.52,0,0,1-3.42.26,3.74,3.74,0,0,1-2.72-2q-1.87-1.77.95-9.68,1.53-4.19,4.39-10.06t5.52-10.24a75.16,75.16,0,0,1,12.57-15.81c.74-.31,1.55-.68,2.42-1.09A6.69,6.69,0,0,1,373.1,28a8.65,8.65,0,0,1,2.63.3,6.51,6.51,0,0,1,2.3,1.06Q380.21,31,378.68,33.51ZM366.05,49c-.82,2.36-1.65,4.54-2.48,6.52s-1.53,3.73-2.12,5.23l4.66-.18c.31-2.52.67-5,1.06-7.49s.77-5,1.12-7.44Zm-1.59,11.8a11.43,11.43,0,0,0,1.65-.11v-.06l-1.42.12C364.26,60.8,364.18,60.82,364.46,60.82Z"/><path d="M23.62,136.88c2.28.23,4,.35,5.11.35a42,42,0,0,0,5.1-.47c.71.23,1.12.53,1.24.88a2.53,2.53,0,0,1,.12,1.09,3.37,3.37,0,0,0,.06,1.1c.08.35.45.64,1.12.88.35.12.46.46.32,1a5.21,5.21,0,0,1-1,1.86,10.45,10.45,0,0,1-4.6,3.54,42.14,42.14,0,0,1-6.67,1.24,44.31,44.31,0,0,1-8.73-.29q-5.19-.94-5-4.31a62.13,62.13,0,0,1,5.43-24.9q1.77-4.06,4-8.55a5.58,5.58,0,0,0,.56-2.13c.06-.79.11-1.55.15-2.3a7.5,7.5,0,0,1,.36-2,1.89,1.89,0,0,1,1.23-1.23q12.28-4.91,19.42-3.78,2.47.06,3.27,1.68a4.8,4.8,0,0,1,.18,3.63A9.15,9.15,0,0,1,42.89,108a8,8,0,0,1-4.52,2.18,41.63,41.63,0,0,0-4.24,1.36A4.56,4.56,0,0,0,32,113.39c-.55.87-1.06,1.7-1.53,2.48a8.49,8.49,0,0,0-1,2.54l-.23,1.3A4.91,4.91,0,0,0,32,120c1.08-.14,2.09-.27,3-.41a6.51,6.51,0,0,1,2.24,0q.86.18.36,1.74a14.51,14.51,0,0,1-1.83,3.51A7.54,7.54,0,0,1,32,127.67c-1,.2-1.72.35-2.09.44l-.86.21c-.27,0-1.06.1-2.36.18a28.48,28.48,0,0,0-3.36,7.31C23.17,136.52,23.27,136.88,23.62,136.88Z"/><path d="M51,147.73a15.11,15.11,0,0,1-5.52-.74,10.92,10.92,0,0,1-4.07-2.33,6.44,6.44,0,0,1-2-3.45,5.81,5.81,0,0,1,.7-4c1-1.65,3.07-2.14,6.14-1.47a37.22,37.22,0,0,0,4.81.76,5.15,5.15,0,0,0,2.27-.35q4.3-1.43,4.84-3.07c.23-.83-.28-1.79-1.54-2.89-.51-.47-1.08-.94-1.71-1.42a11.34,11.34,0,0,1-1.59-1.41,17,17,0,0,1-4.63-5,10.19,10.19,0,0,1-1.39-6.22,21.83,21.83,0,0,1,1.12-5.58,16.37,16.37,0,0,1,2.07-3.92,16.65,16.65,0,0,1,5.66-4.9A31.75,31.75,0,0,1,62.62,99a24.25,24.25,0,0,1,9.68-.18,7.1,7.1,0,0,1,2.83,1.12c.79.55,1.57,1.12,2.36,1.71q2.07,2.07,1,4.19a3.5,3.5,0,0,1-1.29,1.54,3.69,3.69,0,0,1-1.89.64,3,3,0,0,1-.59,2.36q-1.36,1.37-4.72,1.77-4.84-.34-6.55.54c-1.34.7-1.83,2.24-1.48,4.6a3,3,0,0,0,1,1.59c.57.55,1.24,1.14,2,1.77s1.58,1.34,2.42,2.12a13,13,0,0,1,2.21,2.72q3.32,5.43-.53,12.68-2.82,5.43-9.67,8.15A22.62,22.62,0,0,1,51,147.73Z"/><path d="M94.33,129.18q-1.62,4.62-3.27,8.88c-1.1,2.83-2,5-2.74,6.46a12.25,12.25,0,0,1-1.92,3,4.57,4.57,0,0,1-1.68,1.13,4.4,4.4,0,0,1-1.71.23l-1.74-.12q-5-.76-3.07-7.14,1.23-5.07,2-8.29c.51-2.14.94-3.91,1.27-5.31s.62-2.55.86-3.48.49-1.83.76-2.74.62-1.93,1-3.07,1-2.65,1.62-4.54a7.44,7.44,0,0,1-4-.47q-2.59-1.12-2.13-4.84a5.41,5.41,0,0,1,1.83-3.19q.82-.77,2-1.65,2.3-1.83,9.14-3.89a40.07,40.07,0,0,1,12.16-2,5.1,5.1,0,0,1,2.8.33,6.18,6.18,0,0,1,2.33,1.5,3.11,3.11,0,0,1,.92,2.07c0,.74-.47,1.41-1.45,2a2.61,2.61,0,0,0-1,1.56c-.2.73-.42,1.5-.65,2.31a8.13,8.13,0,0,1-1,2.21,2.87,2.87,0,0,1-2.16,1.18,6.5,6.5,0,0,1-2.15.59c-.93.12-1.54.2-1.83.26s-.46.17-.5.33q-1.06,3.12-2.54,7.58T94.33,129.18Zm-8-15.61q-.12,0-.12,0s0,0,.12,0Z"/><path d="M123.63,101.59v.12s0,.06,0,.06,0,0,0,.06V102h.06l.35.94q.59,1.71-3.07,10.62-3.89,9.49-3.6,14.81.66,3.78,6.32-6.08,4.47-7.67,8.67-16.81c.35-.83.73-1.68,1.12-2.57a7.23,7.23,0,0,1,1.47-2.21,4,4,0,0,1,4.72-1.12A4.85,4.85,0,0,1,142,98a4.7,4.7,0,0,1,2.42-.17,3.69,3.69,0,0,1,2,1.09,3.36,3.36,0,0,1,.89,2.27c.12.79-.29,2.66-1.21,5.61s-1.78,5.64-2.57,8.08-1.59,5.09-2.42,8q-3,10.21-4.78,19.24a4,4,0,0,1-1.62,3.12,8.08,8.08,0,0,1-3.48,1.63,7.38,7.38,0,0,1-3.63-.15,2.89,2.89,0,0,1-2.18-2.95c0-.43,0-.87-.06-1.3.08,1.34-.89,2.48-2.89,3.42l-1.54.77a13,13,0,0,1-8.67-.53,13.49,13.49,0,0,1-3.8-2.39,7.86,7.86,0,0,1-2.33-3.57q-2.07-6.6.76-17.35a78,78,0,0,1,2.89-9q1.71-4.36,2.51-6.32c.53-1.29.92-2.19,1.15-2.68s.49-1,.77-1.45a11.42,11.42,0,0,1,1.71-2.71l.71-.65a.51.51,0,0,1,.23-.15,1.27,1.27,0,0,0,.3-.14,3.13,3.13,0,0,1,1-.42l.83-.17h.35a3.79,3.79,0,0,1,2.95.7s0,.06.12.06l.47.42.18.17.18.24s0,.06,0,.06,0,0,0,.06l.06.06V101a.05.05,0,0,1,.06.06v.06a.17.17,0,0,0,.12.06v.06s0,.06,0,.06a0,0,0,0,1,0,0s0,0,.06.09v.06A.17.17,0,0,0,123.63,101.59Zm1.59,39.3v-.18a1,1,0,0,0-.06.47.32.32,0,0,1,.06-.23Z"/><path d="M180.5,120.36a32.9,32.9,0,0,1-.91,5.19,25.52,25.52,0,0,1-2,5.19,33.44,33.44,0,0,1-3,4.9,32.71,32.71,0,0,1-3.86,4.36,23.32,23.32,0,0,1-4.54,3.37,14.38,14.38,0,0,1-10,2.18,5,5,0,0,1-3.16,2.92,7.09,7.09,0,0,1-4.13,0,7.75,7.75,0,0,1-3.57-2.33,6.79,6.79,0,0,1-1.53-4.69,45.88,45.88,0,0,1,.41-6.11,55.81,55.81,0,0,1,1.12-6,65.27,65.27,0,0,1,2.77-9q3.9-9.51,4.43-13.34.77-5.13,2.83-6.37a10.72,10.72,0,0,1,6.49-1.71,16.81,16.81,0,0,1,5.55,1.47A34.54,34.54,0,0,1,176.2,107Q181.39,112,180.5,120.36Zm-23.18,17.7a24.2,24.2,0,0,0,4.86-3.16c1.24-1.08,2.41-2.08,3.51-3a15.31,15.31,0,0,0,3.72-6q2.59-7.66-3.3-11.62c-.59-.43-1.48-1-2.66-1.77a18.44,18.44,0,0,0-1.21,3.95,29.08,29.08,0,0,1-1,4l-1.59,5.2-1.3,5.6a22.46,22.46,0,0,1-.35,2.27c-.16.73-.3,1.49-.42,2.27Z"/><path d="M211.48,104.31a4.8,4.8,0,0,1,2.54,3.12q-1.19,6.61-2.13,13.13t-1.83,10.92q-.88,4.4-1.21,6.58c-.21,1.45-.46,2.91-.73,4.36l-.36,1.24-.23,1.21c-.08.37-.16.78-.24,1.21a5.65,5.65,0,0,1-4.48,1.89,7,7,0,0,1-4.78-1.54q-1.07-.83-.36-3.48a12.9,12.9,0,0,0,.39-2.74c.06-1.12.12-2.06.2-2.8v-.12a12.67,12.67,0,0,0-3.18,1.68c-1,.69-1.54,1.12-1.77,1.3a2.62,2.62,0,0,1-.95.41,8.58,8.58,0,0,1-1.06.21,3.15,3.15,0,0,0-1.53.35q-3.42,6.13-6.14,6.85a7.52,7.52,0,0,1-3.42.26,3.74,3.74,0,0,1-2.72-2q-1.87-1.77.95-9.68,1.53-4.19,4.39-10.06t5.52-10.24a75.48,75.48,0,0,1,12.57-15.81c.74-.31,1.55-.68,2.42-1.09a6.69,6.69,0,0,1,2.56-.68,8.65,8.65,0,0,1,2.63.3,6.51,6.51,0,0,1,2.3,1.06Q213,101.77,211.48,104.31Zm-12.63,15.51c-.82,2.36-1.65,4.54-2.47,6.52s-1.54,3.73-2.13,5.23l4.66-.18q.48-3.78,1.06-7.49t1.12-7.44Zm-1.59,11.8a11.43,11.43,0,0,0,1.65-.11v-.06l-1.41.12C197.06,131.6,197,131.62,197.26,131.62Z"/><path d="M216.14,121.42c.79-2.64,1.42-4.67,1.92-6.11s1-2.72,1.44-3.86a28.16,28.16,0,0,1,1.62-3.31,21.49,21.49,0,0,1,2-2.92,9.59,9.59,0,0,1,2.33-2.09,4.51,4.51,0,0,1,5.43.29c1.57,3.94,2.54,6.57,2.89,7.91a73,73,0,0,1,1.3,8.32c.35-.91.76-1.86,1.21-2.86s.89-2,1.33-3a35.24,35.24,0,0,0,2.3-5.9,10.14,10.14,0,0,1,5.37-6.2,10,10,0,0,1,6.6-1.12,2.51,2.51,0,0,1,1.74,1,1.38,1.38,0,0,1,0,1.6,2.16,2.16,0,0,0-.35,1.56q.15.74.27,1.74a8.84,8.84,0,0,1-1,4.81,46.27,46.27,0,0,0-2.3,5.19c-.79,2.07-1.58,4.26-2.39,6.58s-1.62,4.68-2.45,7.08-1.63,4.58-2.42,6.55q-2.59,6.78-4.24,7.49a13.05,13.05,0,0,1-3.31,1.6,16,16,0,0,1-3.83,0c-1-.08-1.91-1.4-2.66-4a38,38,0,0,1-1.18-5.72,45.72,45.72,0,0,0-1.3-7,88.89,88.89,0,0,1-3.33,9.67,17.06,17.06,0,0,1-1.48,2.66q-.5.64-1.2,1.71a5.46,5.46,0,0,1-3.66,3.13,6.67,6.67,0,0,1-4.49.29c-1.45-.47-1.89-1.38-1.29-2.71Q211.72,136.7,216.14,121.42Z"/><path d="M269.86,129.18q-1.62,4.62-3.28,8.88t-2.74,6.46a12.25,12.25,0,0,1-1.92,3,4.57,4.57,0,0,1-1.68,1.13,4.4,4.4,0,0,1-1.71.23l-1.74-.12q-5-.76-3.07-7.14c.83-3.38,1.49-6.14,2-8.29s.93-3.91,1.27-5.31.62-2.55.85-3.48.49-1.83.77-2.74.62-1.93,1-3.07,1-2.65,1.62-4.54a7.46,7.46,0,0,1-4-.47q-2.59-1.12-2.12-4.84a5.31,5.31,0,0,1,1.83-3.19c.55-.51,1.2-1.06,1.94-1.65,1.54-1.22,4.58-2.52,9.15-3.89a40,40,0,0,1,12.15-2,5.09,5.09,0,0,1,2.8.33,6,6,0,0,1,2.33,1.5,3.11,3.11,0,0,1,.92,2.07c0,.74-.46,1.41-1.45,2a2.65,2.65,0,0,0-1,1.56c-.2.73-.41,1.5-.65,2.31a7.84,7.84,0,0,1-1,2.21,2.85,2.85,0,0,1-2.15,1.18,6.57,6.57,0,0,1-2.16.59c-.92.12-1.53.2-1.83.26s-.46.17-.5.33q-1.07,3.12-2.53,7.58T269.86,129.18Zm-8-15.61c-.08,0-.11,0-.11,0s0,0,.11,0Z"/><path d="M303.87,104.43q-2.07,6.42-3.8,11.62t-3.19,9.56c-1,2.91-1.86,5.59-2.68,8s-1.6,4.81-2.31,7.05a6.84,6.84,0,0,1-3.83,5.49,10.47,10.47,0,0,1-4.48.88,10.21,10.21,0,0,1-3.9-.56A2.86,2.86,0,0,1,278,144.9a4.3,4.3,0,0,1,0-2.57c.26-1,.7-2.38,1.33-4.13s1.42-4.12,2.39-7.11,2-6,3-9.08A131.7,131.7,0,0,1,291,106.08a5.94,5.94,0,0,1,1.77-2.22,7.8,7.8,0,0,1,1.71-.82,10.62,10.62,0,0,0,1.53-.62,3.18,3.18,0,0,0,1.27-1.77,3.32,3.32,0,0,1,2.07-2,4.32,4.32,0,0,1,2.83-.09,3.44,3.44,0,0,1,2,1.89C304.65,101.47,304.54,102.77,303.87,104.43Z"/><path d="M318.68,147.52l-2.27.09c-.77,0-1.82.06-3.16.06s-3.34,0-6-.12c-.63,0-1.26.06-1.88.06a4.37,4.37,0,0,1-1.77-.35q-1.83-.76-2.48-3.54a5.44,5.44,0,0,0-.68-1.83,7.21,7.21,0,0,1-.62-1c-.39-.63-.36-1.67.09-3.13s1-3.25,1.74-5.4,1.51-4.41,2.42-6.81A136,136,0,0,1,309.77,112l1.74-3.9c.49-1.1.93-2,1.33-2.86s.59-1.23.59-1.27c.39-1.49,1.91-2.75,4.54-3.77a11.13,11.13,0,0,1,7-.83c2.32.59,3.35,2.13,3.07,4.6a39.6,39.6,0,0,1-2.45,7.32c-1.08,2.44-2.31,5-3.68,7.67s-2.88,5.51-4.49,8.5-3.21,6.23-4.78,9.73c0,.16,0,.3.24.41a10.76,10.76,0,0,0,2.15-.47c.93-.27,1.89-.52,2.89-.74a14.6,14.6,0,0,1,3-.32,4,4,0,0,1,2.48.77,2.18,2.18,0,0,0,.53,1.68c.39.41.79.81,1.18,1.21q1.47,1.53.24,4.07a6.38,6.38,0,0,1-4.25,3.36A9.34,9.34,0,0,1,318.68,147.52Z"/><path d="M19,183.23,37.44,211.6h.09V183.23h4.41v35H36.85L18.57,190.13h-.1v28.08H14.06v-35Z"/><path d="M64.14,183.23l13.67,35H72.67l-3.83-10.53H54.05l-3.92,10.53H45.37l13.62-35Zm-.56-6.52c-.61-.26-1.2-.56-1.79-.88s-1.2-.62-1.82-.89a4.87,4.87,0,0,0-1.91-.39,4.26,4.26,0,0,0-3.3,1.37A8.39,8.39,0,0,0,53,180.29h2.3c.29-1.67,1.19-2.5,2.69-2.5a4.15,4.15,0,0,1,1.74.39c.57.26,1.16.55,1.74.88s1.18.62,1.77.88a4.49,4.49,0,0,0,1.86.39,4.6,4.6,0,0,0,3.26-1.25q1.35-1.25,1.83-4.67h-2.4a3.51,3.51,0,0,1-.76,2,2.11,2.11,0,0,1-1.69.71A4.48,4.48,0,0,1,63.58,176.71Zm3.79,27-5.83-16.32h-.1l-5.93,16.32Z"/><path d="M80.33,193.83A17.6,17.6,0,0,1,83.49,188a15.47,15.47,0,0,1,5.25-4.07,18.29,18.29,0,0,1,14.6,0,15.33,15.33,0,0,1,5.24,4.07,17.25,17.25,0,0,1,3.16,5.85,22.89,22.89,0,0,1,0,13.77,17.2,17.2,0,0,1-3.16,5.86,15.14,15.14,0,0,1-5.24,4,18.51,18.51,0,0,1-14.6,0,15.27,15.27,0,0,1-5.25-4,17.55,17.55,0,0,1-3.16-5.86,23.1,23.1,0,0,1,0-13.77Zm4.29,12.11a14.26,14.26,0,0,0,2.16,4.63,10.94,10.94,0,0,0,3.77,3.3,12.68,12.68,0,0,0,11,0,11,11,0,0,0,3.77-3.3,14.26,14.26,0,0,0,2.16-4.63,20.38,20.38,0,0,0,0-10.44,14.16,14.16,0,0,0-2.16-4.63,11.06,11.06,0,0,0-3.77-3.31,12.68,12.68,0,0,0-11,0,11,11,0,0,0-3.77,3.31,14.16,14.16,0,0,0-2.16,4.63,20.09,20.09,0,0,0,0,10.44Z"/><path d="M156.26,183.23v3.92h-19.5v11.12h18.18v3.92H136.76v12.1h19.65v3.92H132.1v-35ZM145,172.79l-4.71,7.94h3.14l6.91-7.94Z"/><path d="M190.31,183.23l13.67,35h-5.14L195,207.68h-14.8l-3.92,10.53h-4.75l13.62-35Zm3.24,20.53-5.83-16.32h-.1l-5.93,16.32Z"/><path d="M224.69,213A8.15,8.15,0,0,1,223,216a8.44,8.44,0,0,1-3.18,2.16,13.14,13.14,0,0,1-4.93.81q-4.91,0-7.54-2.58c-1.77-1.71-2.65-4.24-2.65-7.57V206.7h4.66v1.47a15.11,15.11,0,0,0,.24,2.79,5.93,5.93,0,0,0,.86,2.2,4.06,4.06,0,0,0,1.71,1.45,6.77,6.77,0,0,0,2.82.51c2.12,0,3.59-.57,4.39-1.71a7.9,7.9,0,0,0,1.2-4.61V183.23h4.65v26.26A12.16,12.16,0,0,1,224.69,213Z"/><path d="M257.2,215.64Q253.62,219,247,219q-6.76,0-10.56-3.21t-3.8-10.22V183.23h4.65v22.34c0,3.14.84,5.51,2.5,7.13s4.07,2.42,7.21,2.42c3,0,5.23-.8,6.78-2.42s2.33-4,2.33-7.13V183.23h4.65v22.34Q260.77,212.29,257.2,215.64Z"/><path d="M280.23,183.23q8.08,0,12.44,4.11T297,199.88a28.1,28.1,0,0,1-1,7.82,14.56,14.56,0,0,1-3,5.73,13.16,13.16,0,0,1-5.25,3.56,21.13,21.13,0,0,1-7.54,1.22h-12v-35Zm.39,31.06c.52,0,1.17,0,2-.12a11,11,0,0,0,2.5-.59,11.46,11.46,0,0,0,2.62-1.35,8.91,8.91,0,0,0,2.33-2.4,13.54,13.54,0,0,0,1.69-3.8,19.93,19.93,0,0,0,.66-5.51,23.86,23.86,0,0,0-.61-5.61,10.78,10.78,0,0,0-2-4.21,8.87,8.87,0,0,0-3.6-2.65,14.46,14.46,0,0,0-5.44-.9h-7.84v27.14Z"/><path d="M317.37,183.23l13.67,35h-5.15l-3.82-10.53h-14.8l-3.92,10.53H298.6l13.62-35Zm3.23,20.53-5.83-16.32h-.1l-5.93,16.32Z"/><path d="M31.07,260.16a10.08,10.08,0,0,1-6.28,1.89,11.51,11.51,0,0,1-4.62-.86,9.15,9.15,0,0,1-3.29-2.41,10.23,10.23,0,0,1-2-3.7,18,18,0,0,1-.75-4.68,13.54,13.54,0,0,1,.77-4.65,11,11,0,0,1,2.18-3.65,9.65,9.65,0,0,1,3.31-2.41,10.13,10.13,0,0,1,4.19-.86,9.15,9.15,0,0,1,4.92,1.22,9.75,9.75,0,0,1,3.14,3.12,12.49,12.49,0,0,1,1.64,4.13,17.61,17.61,0,0,1,.36,4.26H18a9,9,0,0,0,.34,2.77,6.28,6.28,0,0,0,1.25,2.32,6.09,6.09,0,0,0,2.19,1.61,7.45,7.45,0,0,0,3.14.61,6.32,6.32,0,0,0,3.81-1.08,5.13,5.13,0,0,0,1.95-3.27H34.3A8.91,8.91,0,0,1,31.07,260.16Zm-.88-14.28a6.44,6.44,0,0,0-8.38-3.33,5.91,5.91,0,0,0-2,1.35,6.37,6.37,0,0,0-1.29,2,7.57,7.57,0,0,0-.56,2.43H30.77A7.57,7.57,0,0,0,30.19,245.88Zm-4.54-17.41-4.12,7h2.75l6.06-7Z"/><path d="M66.59,261.58v-3H66.5a5.34,5.34,0,0,1-2.83,2.66,10.75,10.75,0,0,1-4.26.82,10,10,0,0,1-4.49-.95,9.26,9.26,0,0,1-3.19-2.53,11.2,11.2,0,0,1-1.91-3.7,15.24,15.24,0,0,1-.65-4.47,15.6,15.6,0,0,1,.63-4.48,10.32,10.32,0,0,1,1.89-3.67,9.24,9.24,0,0,1,3.18-2.5,10.22,10.22,0,0,1,4.45-.92,11.26,11.26,0,0,1,1.85.17,9.88,9.88,0,0,1,2,.58A8.18,8.18,0,0,1,65,240.66a5.73,5.73,0,0,1,1.48,1.65h.09V230.87h3.66v30.71Zm-13.14-7.89a8.35,8.35,0,0,0,1.25,2.64,6.22,6.22,0,0,0,2.15,1.85,6.5,6.5,0,0,0,3.07.69,6,6,0,0,0,5.25-2.65,8,8,0,0,0,1.18-2.69,12.54,12.54,0,0,0,.37-3.05,12.72,12.72,0,0,0-.39-3.16,7.88,7.88,0,0,0-1.22-2.69,6.4,6.4,0,0,0-2.18-1.87,6.78,6.78,0,0,0-3.22-.71,6.37,6.37,0,0,0-3.14.73,5.82,5.82,0,0,0-2.06,1.94,8.33,8.33,0,0,0-1.12,2.75,14.55,14.55,0,0,0-.34,3.18A11.48,11.48,0,0,0,53.45,253.69Z"/><path d="M76.09,235.35v-4.48h3.66v4.48Zm3.66,4v22.24H76.09V239.34Z"/><path d="M88.73,239.34V244h.09a10,10,0,0,1,3.27-4,8.18,8.18,0,0,1,4.9-1.2v3.87a10.36,10.36,0,0,0-3.74.6,5.94,5.94,0,0,0-2.5,1.76,7.28,7.28,0,0,0-1.37,2.82,15,15,0,0,0-.43,3.81v9.89H85.29V239.34Z"/><path d="M114.71,260.16a10.12,10.12,0,0,1-6.28,1.89,11.52,11.52,0,0,1-4.63-.86,9.15,9.15,0,0,1-3.29-2.41,10.22,10.22,0,0,1-2-3.7,17.63,17.63,0,0,1-.76-4.68,13.31,13.31,0,0,1,.78-4.65,11,11,0,0,1,2.17-3.65,9.65,9.65,0,0,1,3.31-2.41,10.16,10.16,0,0,1,4.19-.86,9.21,9.21,0,0,1,4.93,1.22,9.72,9.72,0,0,1,3.13,3.12,12.28,12.28,0,0,1,1.64,4.13,17.61,17.61,0,0,1,.36,4.26H101.63a8.71,8.71,0,0,0,.35,2.77,6,6,0,0,0,3.44,3.93,7.39,7.39,0,0,0,3.14.61,6.31,6.31,0,0,0,3.8-1.08,5.18,5.18,0,0,0,2-3.27h3.61A8.9,8.9,0,0,1,114.71,260.16Zm-.89-14.28a6.44,6.44,0,0,0-8.38-3.33,6,6,0,0,0-2,1.35,6.74,6.74,0,0,0-1.29,2,7.84,7.84,0,0,0-.56,2.43H114.4A7.32,7.32,0,0,0,113.82,245.88Z"/><path d="M122.27,235.35v-4.48h3.66v4.48Zm3.66,4v22.24h-3.66V239.34Z"/><path d="M141.11,239.34v3.23h-4.43v13.8a4.19,4.19,0,0,0,.1,1,1.16,1.16,0,0,0,.41.6,1.93,1.93,0,0,0,.84.28,13.08,13.08,0,0,0,1.4.06h1.68v3.23h-2.8a12.93,12.93,0,0,1-2.43-.2,3.49,3.49,0,0,1-1.63-.71,3,3,0,0,1-.93-1.46,8.45,8.45,0,0,1-.3-2.49V242.57h-3.78v-3.23H133v-6.66h3.66v6.66Z"/><path d="M144.63,245.9a10.4,10.4,0,0,1,2.07-3.7,9.74,9.74,0,0,1,3.39-2.47,12.49,12.49,0,0,1,9.31,0,9.8,9.8,0,0,1,3.38,2.47,10.53,10.53,0,0,1,2.06,3.7,14.79,14.79,0,0,1,.69,4.58,14.53,14.53,0,0,1-.69,4.56,10.62,10.62,0,0,1-2.06,3.68,9.62,9.62,0,0,1-3.38,2.45,12.75,12.75,0,0,1-9.31,0,9.57,9.57,0,0,1-3.39-2.45,10.48,10.48,0,0,1-2.07-3.68,14.53,14.53,0,0,1-.69-4.56A14.79,14.79,0,0,1,144.63,245.9Zm3.72,8.17a7.47,7.47,0,0,0,1.49,2.63,6.27,6.27,0,0,0,2.21,1.61,6.72,6.72,0,0,0,5.37,0,6.4,6.4,0,0,0,2.22-1.61,7.61,7.61,0,0,0,1.48-2.63,12.2,12.2,0,0,0,0-7.18,7.76,7.76,0,0,0-1.48-2.64,6.36,6.36,0,0,0-2.22-1.64,6.72,6.72,0,0,0-5.37,0,6.23,6.23,0,0,0-2.21,1.64,7.61,7.61,0,0,0-1.49,2.64,12.2,12.2,0,0,0,0,7.18Z"/></svg>