<svg xmlns="http://www.w3.org/2000/svg" xmlns:xlink="http://www.w3.org/1999/xlink" viewBox="0 0 720 142.39" xmlns:v="https://vecta.io/nano"><path d="M38.22 60.88a16.18 16.18 0 0 1-4.93 2.57 11.55 11.55 0 0 1-5.1.44 7.46 7.46 0 0 1-4.37-2.18 55.62 55.62 0 0 0-2.24 10.38 4.54 4.54 0 0 1-.83 1.71 6.43 6.43 0 0 1-4.66 4.2 9.48 9.48 0 0 1-6.6-.35 6 6 0 0 1-2.36-1.89 4.81 4.81 0 0 1-1-3A219.68 219.68 0 0 1 14 49.61l1.33-3.06.91-2 .74-1.45c.22-.45.48-.87.79-1.38q1.07-1.77 2.45-4.16A28.84 28.84 0 0 1 22.61 34a13.26 13.26 0 0 1 2.07-2 20.37 20.37 0 0 1 2.42-1.62l3.33-2a10.22 10.22 0 0 1 15 5q1.77 4.36.59 11.74-1.78 11.17-7.8 15.76zm-12.33-5.25q4.83-1.07 6.72-6.31a19.55 19.55 0 0 0 .65-10 46.72 46.72 0 0 0-2.45 4.78l-2 4.42-2.92 7.11zM57 66.08l5.1.35a42.27 42.27 0 0 0 5.15-.43c.7.23 1.12.53 1.24.88a2.69 2.69 0 0 1 .11 1.09 3.37 3.37 0 0 0 .06 1.1c.08.35.45.64 1.12.88.36.12.46.46.33 1a5.26 5.26 0 0 1-1 1.86 10.4 10.4 0 0 1-4.6 3.54 41.94 41.94 0 0 1-6.67 1.24 44.35 44.35 0 0 1-8.73-.29q-5.19-.95-5-4.31a62.13 62.13 0 0 1 5.43-24.9q1.77-4.06 4-8.55a5.77 5.77 0 0 0 .56-2.13l.15-2.3a7.14 7.14 0 0 1 .35-2 1.92 1.92 0 0 1 1.24-1.23q12.29-4.88 19.43-3.8 2.48.06 3.27 1.68a4.8 4.8 0 0 1 .18 3.63 9.05 9.05 0 0 1-2.42 3.78 8 8 0 0 1-4.51 2.18 42.2 42.2 0 0 0-4.25 1.36 4.58 4.58 0 0 0-2.12 1.88l-1.54 2.48a8.47 8.47 0 0 0-1 2.54l-.24 1.3a4.94 4.94 0 0 0 2.75.32l3-.41a6.51 6.51 0 0 1 2.24 0c.57.12.69.7.35 1.74A13.83 13.83 0 0 1 69.16 54a7.47 7.47 0 0 1-3.74 2.83l-2.1.44-.85.21c-.28 0-1.07.1-2.36.18A29 29 0 0 0 56.74 65c-.15.72-.05 1.08.26 1.08zm28 7.61q-.54 2.36-3.66 2.89a9 9 0 0 1-5.49-.65c-1.93-.83-2.77-2-2.54-3.48q-.35-3.42 3.6-14.87Q82.76 40.41 88.66 33a9.31 9.31 0 0 1 2.63-2.45 17.45 17.45 0 0 1 2.5-1l2.95-.88a41.74 41.74 0 0 1 5.82-1.15 9.16 9.16 0 0 1 4.92.65 7.6 7.6 0 0 1 3.4 2.86 10.44 10.44 0 0 1 1.5 4.45 18.77 18.77 0 0 1-.18 5.37 24.12 24.12 0 0 1-1.71 5.67 25.33 25.33 0 0 1-3.13 5.34 18.56 18.56 0 0 1-9.67 7l.59 1 1.86 2.6 2.18 2.89a34.56 34.56 0 0 1 2 2.95 13 13 0 0 1 1.29 2.77c.63 1.93.14 3.32-1.47 4.19-1.3.79-2.32 1-3.07.59a6.08 6.08 0 0 1-.94-.74 3.9 3.9 0 0 0-1.3-.74q-3.48 1-5.31-1.77a19.83 19.83 0 0 1-1.71-3.24l-1-2.48a18.1 18.1 0 0 0-2.42-3.77l-1.48 4.07-2.24 6.49zm11.86-34.34q-1.12 2.53-1.53 3.54-.83 2-1.83 4.42-.18 1.3-.3 1.83l.83-.82 1-.48 2-1.06a6.57 6.57 0 0 0 1.59-1.18 11.12 11.12 0 0 0 2.36-4.42 3.46 3.46 0 0 1 .21-1.18 5.14 5.14 0 0 0 .27-1.18 1.52 1.52 0 0 0-1.12-1.82c-.78-.08-1.77.57-3 1.95-.18.26-.34.4-.48.4zm35.28-8.91a11.23 11.23 0 0 1 .65 2.12 2 2 0 0 1-.82 1.89s0 .1-.12.18a16.77 16.77 0 0 1 .23 5.19l-.76 4.66a92.75 92.75 0 0 1 5.07-8 31.82 31.82 0 0 1 7.26-7.5 9.16 9.16 0 0 1 2.74-1 8.57 8.57 0 0 1 3.1-.09 4.45 4.45 0 0 1 2.45 1.18 3.45 3.45 0 0 1 .85 2.83q-1.65 11.51-3.54 21.45a147.36 147.36 0 0 1-4.89 19v.12h-.06a4.92 4.92 0 0 1-3.54 3 8.2 8.2 0 0 1-5 .11c-1.77-.51-2.57-1.45-2.42-2.83l.06-1.36v-.11q.24-1.42.27-1.92a4.47 4.47 0 0 1 .09-.74 13.44 13.44 0 0 1 .5-2.86l.56-2.15.35-1.57.24-1.15a18.86 18.86 0 0 1-3.19 3.72 8.71 8.71 0 0 1-5.48 1.53c-1.3-.08-2-.37-2.25-.88a10.47 10.47 0 0 0-.82-2 4 4 0 0 1-.59-1.59 44.44 44.44 0 0 1-3 9.62l-1.18 2c-.55 1.3-1.81 2.2-3.78 2.72a8.73 8.73 0 0 1-5.31-.12c-1.73-.55-2.55-1.54-2.48-2.95a33.26 33.26 0 0 1 .86-5.34q.73-3.23 1.74-6.82 3-11.39 4.28-14.81 1.28-3.42 2.15-5.36a34.61 34.61 0 0 1 3.78-6.61 8 8 0 0 1 6.07-4.49 8.29 8.29 0 0 1 5.93.93zm50.21 3.07a4.8 4.8 0 0 1 2.54 3.12q-1.19 6.61-2.12 13.13-.93 6.52-1.83 10.92l-1.21 6.58-.74 4.36-.35 1.24-.24 1.21-.24 1.21a5.64 5.64 0 0 1-4.48 1.89 7 7 0 0 1-4.78-1.54c-.71-.55-.83-1.71-.35-3.48a13.66 13.66 0 0 0 .38-2.74l.21-2.8v-.12a12.73 12.73 0 0 0-3.14 1.68l-1.77 1.3a2.64 2.64 0 0 1-.94.41 9.09 9.09 0 0 1-1.07.21 3.19 3.19 0 0 0-1.53.35q-3.42 6.14-6.14 6.85a7.52 7.52 0 0 1-3.42.26 3.73 3.73 0 0 1-2.71-2q-1.89-1.77.94-9.68a108.71 108.71 0 0 1 4.4-10.06q2.85-5.87 5.51-10.24a75.81 75.81 0 0 1 12.57-15.81l2.42-1.09a6.69 6.69 0 0 1 2.57-.68 8.59 8.59 0 0 1 2.62.3 6.43 6.43 0 0 1 2.3 1.06c1.41 1.07 1.62 2.47.6 4.16zM169.73 49l-2.48 6.52-2.13 5.23 4.66-.18 1.07-7.49 1.12-7.44zm-1.6 11.8a11.43 11.43 0 0 0 1.65-.11v-.06l-1.41.12c-.43.05-.51.07-.24.07zM187 50.62l1.92-6.11 1.45-3.86a28.16 28.16 0 0 1 1.63-3.31 22.38 22.38 0 0 1 2-2.92 9.78 9.78 0 0 1 2.33-2.09 4.51 4.51 0 0 1 5.43.29 84.08 84.08 0 0 1 2.89 7.91 68.73 68.73 0 0 1 1.3 8.32l1.21-2.86 1.33-3a34.37 34.37 0 0 0 2.3-5.9 10.17 10.17 0 0 1 5.37-6.2 10 10 0 0 1 6.61-1.12 2.56 2.56 0 0 1 1.74 1 1.42 1.42 0 0 1 0 1.6 2.13 2.13 0 0 0-.36 1.56q.15.73.27 1.74a8.75 8.75 0 0 1-.95 4.81 48.17 48.17 0 0 0-2.3 5.19q-1.17 3.1-2.39 6.58l-2.44 7.08-2.42 6.55q-2.59 6.78-4.25 7.49a13.05 13.05 0 0 1-3.31 1.6 16 16 0 0 1-3.83 0q-1.53-.12-2.66-4a38.18 38.18 0 0 1-1.17-5.72 47.19 47.19 0 0 0-1.3-7 90.41 90.41 0 0 1-3.34 9.67 18.21 18.21 0 0 1-1.47 2.66c-.34.43-.74 1-1.21 1.71a5.42 5.42 0 0 1-3.66 3.13 6.65 6.65 0 0 1-4.48.29c-1.46-.47-1.89-1.37-1.3-2.71q.65-7.1 5.06-22.38zm46.5 15.46l5.11.35a42 42 0 0 0 5.1-.47c.71.23 1.12.53 1.24.88a2.53 2.53 0 0 1 .12 1.09 3.37 3.37 0 0 0 .06 1.1c.07.35.45.64 1.12.88.35.12.46.46.32 1a5.21 5.21 0 0 1-1 1.86 10.45 10.45 0 0 1-4.6 3.54 42.34 42.34 0 0 1-6.67 1.24 44.31 44.31 0 0 1-8.73-.29c-3.46-.63-5.14-2.07-5-4.31A62.13 62.13 0 0 1 226 48.08q1.77-4.06 4-8.55a5.58 5.58 0 0 0 .56-2.13l.15-2.3a7.93 7.93 0 0 1 .35-2 1.92 1.92 0 0 1 1.24-1.23q12.27-4.91 19.42-3.78 2.47.06 3.27 1.68a4.8 4.8 0 0 1 .18 3.63 9.15 9.15 0 0 1-2.42 3.78 8 8 0 0 1-4.52 2.18 41.63 41.63 0 0 0-4.23 1.35 4.56 4.56 0 0 0-2.13 1.88l-1.53 2.48a8.49 8.49 0 0 0-1 2.54l-.23 1.3a4.91 4.91 0 0 0 2.74.32l3-.41a6.51 6.51 0 0 1 2.24 0q.85.18.36 1.74a14.51 14.51 0 0 1-1.82 3.44 7.54 7.54 0 0 1-3.75 2.83l-2.09.44-.86.21c-.27 0-1.06.1-2.36.18a28.48 28.48 0 0 0-3.36 7.34c-.16.72-.06 1.08.29 1.08zm17.53-41a6.09 6.09 0 0 1 .29-1.71 5.13 5.13 0 0 0-.62-2.07l-1-1.77q-2.7 3.47-4.16 4.83a13 13 0 0 1-4.84 2.54q-2.7 1.1-4.01.1a1.47 1.47 0 0 1-.65-1.33 4.75 4.75 0 0 1 .89-2.33q5.19-6.19 7.55-8.55 2.36-2.36 3.68-3.57Q249.5 10 250.53 9a7.47 7.47 0 0 1 2.27-1.5c2.08-.91 3.52-.89 4.3.06.24.86-.15 1.81-1.18 2.83v.88a28.27 28.27 0 0 1 .65 6.38l.5 1.94a6.18 6.18 0 0 1 .15 2.19 4.51 4.51 0 0 1-3 3.71 5.72 5.72 0 0 1-2 .42 1.23 1.23 0 0 1-1.22-.84zm4.07 25.54l1.91-6.11 1.45-3.86a28.16 28.16 0 0 1 1.62-3.31 21.49 21.49 0 0 1 2-2.92 9.59 9.59 0 0 1 2.33-2.09 4.52 4.52 0 0 1 5.43.29l2.89 7.91a73 73 0 0 1 1.3 8.32l1.2-2.86 1.33-3a33.54 33.54 0 0 0 2.3-5.9 10.2 10.2 0 0 1 5.37-6.2 10 10 0 0 1 6.61-1.12 2.51 2.51 0 0 1 1.74 1 1.42 1.42 0 0 1 0 1.6 2.16 2.16 0 0 0-.35 1.56l.26 1.74a8.75 8.75 0 0 1-.94 4.81 44.51 44.51 0 0 0-2.3 5.19q-1.18 3.1-2.39 6.58l-2.45 7.08-2.42 6.55q-2.6 6.78-4.25 7.49a12.88 12.88 0 0 1-3.3 1.6 16.09 16.09 0 0 1-3.84 0q-1.53-.12-2.65-4a38 38 0 0 1-1.18-5.72 45.72 45.72 0 0 0-1.3-7 88.89 88.89 0 0 1-3.33 9.67 17.06 17.06 0 0 1-1.48 2.66l-1.21 1.71a5.42 5.42 0 0 1-3.66 3.13 6.64 6.64 0 0 1-4.48.29c-1.45-.47-1.89-1.37-1.3-2.71q.67-7.1 5.09-22.38zm59.64-6.49q0-1.77-1.23-1.77a3.59 3.59 0 0 0-1.13.23q-.64.24-1.23.42a12 12 0 0 0-3.4 2.56l-2.45 3.1a21.41 21.41 0 0 0-2.12 3.66 25.73 25.73 0 0 0-1.36 3.67q-1.71 6.32 1.3 8.49a4.29 4.29 0 0 0 2.63.86 4.43 4.43 0 0 0 2.24-.56l1.68-1a6 6 0 0 1 1.92-.67 5.77 5.77 0 0 1 2.71.29c1.08.34 1.66.78 1.74 1.33a6.12 6.12 0 0 1 0 1.71A6.13 6.13 0 0 0 316 68c.06.47.48.77 1.27.89q1.13 1.41-1.41 3.42l-1.24 1a22.26 22.26 0 0 1-10.8 3.6 18.16 18.16 0 0 1-7.67-1.3q-6.07-2.3-6.84-10.32a32.17 32.17 0 0 1 1.88-15.4 39.9 39.9 0 0 1 7.32-12.45q4.43-5.25 8.73-6.84a19.49 19.49 0 0 1 11.09-2.07q6.32.82 8.26 5.37 1.94 4.55-.59 10.94a6.85 6.85 0 0 1-3.36 3.54 9.37 9.37 0 0 1-4.6 1.18c-1.65 0-2.71-.53-3.19-1.57a5.6 5.6 0 0 1-.11-3.86z"/><use xlink:href="#B"/><path d="M376.34 33.51a4.8 4.8 0 0 1 2.54 3.12q-1.19 6.61-2.13 13.13-.94 6.52-1.83 10.92-.89 4.4-1.21 6.58l-.73 4.36-.36 1.24-.23 1.21-.24 1.21a5.65 5.65 0 0 1-4.48 1.89 7 7 0 0 1-4.78-1.54q-1.06-.82-.36-3.48a12.9 12.9 0 0 0 .39-2.74l.2-2.8v-.12a12.67 12.67 0 0 0-3.18 1.68l-1.77 1.3a2.62 2.62 0 0 1-.95.41 8.58 8.58 0 0 1-1.06.21 3.15 3.15 0 0 0-1.53.35q-3.42 6.14-6.14 6.85a7.52 7.52 0 0 1-3.42.26 3.73 3.73 0 0 1-2.71-2q-1.89-1.77.94-9.68a108.71 108.71 0 0 1 4.4-10.06q2.85-5.87 5.51-10.24a75.81 75.81 0 0 1 12.57-15.81l2.42-1.09a6.69 6.69 0 0 1 2.56-.68 8.65 8.65 0 0 1 2.63.3 6.51 6.51 0 0 1 2.3 1.06c1.46 1.07 1.67 2.47.65 4.16zM363.71 49l-2.47 6.52-2.13 5.23 4.66-.18q.48-3.78 1.06-7.49l1.13-7.44zm-1.59 11.8a11.43 11.43 0 0 0 1.65-.11v-.06l-1.41.12c-.44.05-.51.07-.24.07zm46.61 5.28l5.1.35a42.1 42.1 0 0 0 5.11-.47c.71.23 1.12.53 1.24.88a2.69 2.69 0 0 1 .11 1.09 3.37 3.37 0 0 0 .06 1.1c.08.35.46.64 1.12.88.36.12.47.46.33 1a5.1 5.1 0 0 1-1 1.86 10.4 10.4 0 0 1-4.6 3.54 42.06 42.06 0 0 1-6.66 1.24 44.43 44.43 0 0 1-8.74-.29q-5.19-.95-5-4.31a62.13 62.13 0 0 1 5.43-24.9q1.77-4.06 4-8.55a5.77 5.77 0 0 0 .56-2.13l.15-2.3a7.51 7.51 0 0 1 .35-2 1.92 1.92 0 0 1 1.24-1.23Q419.82 27 427 28.08c1.65 0 2.74.6 3.28 1.68a4.75 4.75 0 0 1 .17 3.63 9.05 9.05 0 0 1-2.45 3.78 8 8 0 0 1-4.51 2.18 42.2 42.2 0 0 0-4.25 1.36 4.58 4.58 0 0 0-2.12 1.88l-1.54 2.48a8.47 8.47 0 0 0-1 2.54l-.23 1.3a4.89 4.89 0 0 0 2.74.32l3-.41a6.51 6.51 0 0 1 2.24 0c.57.12.69.7.35 1.74a14.09 14.09 0 0 1-1.82 3.44 7.54 7.54 0 0 1-3.75 2.83l-2.1.44-.85.21c-.28 0-1.06.1-2.36.18a28.48 28.48 0 0 0-3.36 7.34c-.16.72-.06 1.08.29 1.08zm27.38 10.85a15.11 15.11 0 0 1-5.52-.74 10.92 10.92 0 0 1-4.07-2.33 6.52 6.52 0 0 1-2-3.45 5.82 5.82 0 0 1 .71-4q1.53-2.48 6.14-1.47a37.41 37.41 0 0 0 4.8.76 5.17 5.17 0 0 0 2.28-.35q4.3-1.43 4.83-3.07c.24-.83-.27-1.79-1.53-2.89-.51-.47-1.08-.94-1.71-1.42a11.34 11.34 0 0 1-1.59-1.41 17 17 0 0 1-4.64-5.05 10.19 10.19 0 0 1-1.38-6.22 21.41 21.41 0 0 1 1.12-5.58 16 16 0 0 1 7.73-8.82 31.29 31.29 0 0 1 6.43-2.65 24.21 24.21 0 0 1 9.69-.24 7.14 7.14 0 0 1 2.84 1.12l2.36 1.71c1.37 1.38 1.71 2.78 1 4.19a3.59 3.59 0 0 1-1.3 1.54 3.69 3.69 0 0 1-1.89.64 3 3 0 0 1-.59 2.36q-1.35 1.37-4.72 1.77-4.83-.35-6.55.54c-1.33.7-1.82 2.24-1.47 4.6a3 3 0 0 0 1 1.59q.85.83 2 1.77l2.42 2.12a13.35 13.35 0 0 1 2.21 2.72q3.3 5.43-.53 12.68-2.84 5.43-9.68 8.15a22.57 22.57 0 0 1-8.39 1.43zm43.33-18.55q-1.62 4.62-3.27 8.88l-2.75 6.46a12 12 0 0 1-1.92 3 4.57 4.57 0 0 1-1.68 1.13 4.4 4.4 0 0 1-1.71.23l-1.74-.08q-5-.76-3.07-7.14 1.24-5.07 2-8.28.76-3.21 1.27-5.31l.85-3.49.77-2.74 1-3.07 1.63-4.54a7.48 7.48 0 0 1-4-.47q-2.59-1.12-2.12-4.84a5.41 5.41 0 0 1 1.83-3.19q.82-.77 1.95-1.65 2.29-1.83 9.14-3.89a40 40 0 0 1 12.15-2 5.14 5.14 0 0 1 2.81.33 6.18 6.18 0 0 1 2.33 1.5 3.09 3.09 0 0 1 .91 2.07c0 .74-.46 1.41-1.44 2a2.61 2.61 0 0 0-1 1.57l-.65 2.3a7.84 7.84 0 0 1-1 2.21 2.85 2.85 0 0 1-2.15 1.18 6.5 6.5 0 0 1-2.16.59l-1.82.26c-.29.06-.47.17-.51.33l-2.53 7.58-3.12 9.07zm-8-15.61q-.12 0-.12 0h.12zm37.29-11.98v.12.06.06.12h.06l.36.94q.59 1.71-3.07 10.62-3.9 9.49-3.6 14.81.65 3.78 6.31-6.08 4.48-7.66 8.68-16.81l1.12-2.57a7.23 7.23 0 0 1 1.47-2.21 4 4 0 0 1 4.72-1.12 4.87 4.87 0 0 1 2.21-1.54 4.71 4.71 0 0 1 2.42-.17 3.75 3.75 0 0 1 2 1.09 3.35 3.35 0 0 1 .88 2.27q.18 1.19-1.21 5.61l-2.56 8.08-2.42 8q-3 10.22-4.78 19.24a4 4 0 0 1-1.62 3.12 8.14 8.14 0 0 1-3.44 1.57 7.38 7.38 0 0 1-3.63-.15 2.88 2.88 0 0 1-2.18-3l-.06-1.3c.07 1.34-.89 2.48-2.9 3.42l-1.53.77a13 13 0 0 1-8.67-.53 13.4 13.4 0 0 1-3.81-2.39 7.86 7.86 0 0 1-2.33-3.57q-2.07-6.6.77-17.35a76.09 76.09 0 0 1 2.89-9q1.71-4.36 2.51-6.32l1.15-2.68.77-1.45a10.81 10.81 0 0 1 1.76-2.6l.7-.65a.53.53 0 0 1 .24-.15 1.27 1.27 0 0 0 .3-.14 3 3 0 0 1 1-.42l.82-.17h.36a3.8 3.8 0 0 1 2.95.7s0 .06.12.06l.47.42.17.17.18.24v.06.06l.06.06v.11a.05.05 0 0 1 .06.06v.06a.17.17 0 0 0 .12.06v.06.06a0 0 0 0 1 0 0 .21.21 0 0 0 .05.09v.06a.15.15 0 0 0 .13.14zm1.6 39.3v-.18a1 1 0 0 0-.06.47.32.32 0 0 1 .06-.23zm55.28-20.53a34.09 34.09 0 0 1-.91 5.19 26.76 26.76 0 0 1-2 5.19 34.32 34.32 0 0 1-3 4.9 32.09 32.09 0 0 1-3.87 4.36 23 23 0 0 1-4.54 3.37 14.36 14.36 0 0 1-10 2.18 5 5 0 0 1-3.15 2.92 7.09 7.09 0 0 1-4.13 0 7.75 7.75 0 0 1-3.57-2.33 6.75 6.75 0 0 1-1.54-4.69 47.62 47.62 0 0 1 .41-6.11 55.8 55.8 0 0 1 1.13-6 63.91 63.91 0 0 1 2.77-9q3.9-9.51 4.42-13.34.76-5.13 2.84-6.37a10.72 10.72 0 0 1 6.53-1.69 16.69 16.69 0 0 1 5.54 1.47 34.2 34.2 0 0 1 8.79 6.55q5.16 5.03 4.28 13.4zm-23.19 17.7a24.3 24.3 0 0 0 4.87-3.16l3.51-3a15.42 15.42 0 0 0 3.72-6q2.6-7.66-3.31-11.62l-2.65-1.77a17.89 17.89 0 0 0-1.21 3.95 30.58 30.58 0 0 1-1 4l-1.6 5.2-1.29 5.6a19.93 19.93 0 0 1-.36 2.27l-.41 2.27zm54.16-33.75a4.78 4.78 0 0 1 2.54 3.12q-1.18 6.61-2.12 13.13-.94 6.52-1.83 10.92l-1.21 6.58-.74 4.36-.35 1.24-.24 1.21-.23 1.21a5.67 5.67 0 0 1-4.49 1.89 7 7 0 0 1-4.78-1.54c-.71-.55-.82-1.71-.35-3.48a13 13 0 0 0 .38-2.74l.21-2.8v-.12a12.91 12.91 0 0 0-3.19 1.68l-1.77 1.3a2.56 2.56 0 0 1-.94.41 9.37 9.37 0 0 1-1.06.21 3.24 3.24 0 0 0-1.54.35q-3.42 6.14-6.13 6.85a7.53 7.53 0 0 1-3.42.26 3.72 3.72 0 0 1-2.72-2q-1.89-1.77.94-9.68 1.55-4.19 4.4-10.06 2.85-5.87 5.52-10.24A75.45 75.45 0 0 1 586 29.73l2.42-1.09A6.74 6.74 0 0 1 591 28a8.59 8.59 0 0 1 2.62.3 6.48 6.48 0 0 1 2.31 1.06c1.46 1.06 1.68 2.46.65 4.15zM584 49l-2.48 6.52-2.12 5.23 4.66-.18 1.06-7.49 1.12-7.44zm-1.59 11.8a11.43 11.43 0 0 0 1.65-.11v-.06l-1.42.12c-.47.05-.55.07-.27.07zm18.83-10.18l1.92-6.11 1.45-3.86a28.16 28.16 0 0 1 1.62-3.31 21.49 21.49 0 0 1 2-2.92 9.41 9.41 0 0 1 2.33-2.09 4.5 4.5 0 0 1 5.42.29l2.9 7.91a71.17 71.17 0 0 1 1.29 8.32l1.21-2.86 1.33-3a33.54 33.54 0 0 0 2.3-5.9 10.2 10.2 0 0 1 5.37-6.2 10 10 0 0 1 6.62-1.16 2.56 2.56 0 0 1 1.74 1 1.42 1.42 0 0 1 0 1.6 2.12 2.12 0 0 0-.35 1.56l.26 1.74a8.84 8.84 0 0 1-.94 4.81 44.51 44.51 0 0 0-2.3 5.19q-1.18 3.1-2.39 6.58-1.21 3.48-2.45 7.08l-2.42 6.55q-2.6 6.78-4.25 7.49a12.88 12.88 0 0 1-3.3 1.6 16.1 16.1 0 0 1-3.84 0c-1-.08-1.91-1.4-2.65-4a36.77 36.77 0 0 1-1.18-5.72 47.19 47.19 0 0 0-1.3-7 88.89 88.89 0 0 1-3.33 9.67 18 18 0 0 1-1.48 2.66l-1.21 1.71A5.42 5.42 0 0 1 602 75.4a6.64 6.64 0 0 1-4.48.29c-1.46-.47-1.89-1.37-1.3-2.71q.6-7.08 5.02-22.36zM655 58.38q-1.62 4.62-3.27 8.88l-2.74 6.46a12.25 12.25 0 0 1-1.92 3 4.57 4.57 0 0 1-1.68 1.13 4.42 4.42 0 0 1-1.71.23L641.9 78q-5-.76-3.07-7.14 1.23-5.07 2-8.28l1.27-5.31.86-3.49.76-2.74 1-3.07 1.62-4.54a7.44 7.44 0 0 1-4-.47q-2.6-1.12-2.13-4.84a5.41 5.41 0 0 1 1.83-3.19q.82-.77 1.95-1.65 2.29-1.83 9.14-3.89a40 40 0 0 1 12.16-2 5.1 5.1 0 0 1 2.8.33 6.18 6.18 0 0 1 2.33 1.5 3.11 3.11 0 0 1 .92 2.07c0 .74-.47 1.41-1.45 2a2.6 2.6 0 0 0-1 1.57l-.65 2.3a8.13 8.13 0 0 1-1 2.21 2.87 2.87 0 0 1-2.16 1.18 6.5 6.5 0 0 1-2.15.59l-1.83.26c-.29.06-.46.17-.5.33q-1.07 3.12-2.54 7.58-1.47 4.46-3.06 9.07zm-8-15.61q-.12 0-.12 0h.12z"/><use xlink:href="#B" x="342"/><path d="M703.79 76.72l-2.28.09-3.15.06c-1.33 0-3.35 0-6-.12q-.95.06-1.89.06a4.37 4.37 0 0 1-1.77-.35c-1.22-.51-2-1.69-2.48-3.54a5.26 5.26 0 0 0-.67-1.83 6.36 6.36 0 0 1-.62-1c-.4-.63-.37-1.67.08-3.13l1.74-5.4 2.42-6.81a138.1 138.1 0 0 1 5.73-13.57q1-2.25 1.74-3.9l1.33-2.86a13.16 13.16 0 0 0 .58-1.27c.4-1.49 1.91-2.75 4.55-3.77a11.12 11.12 0 0 1 7-.83c2.32.59 3.34 2.13 3.07 4.6a39.6 39.6 0 0 1-2.45 7.32Q709 44.13 707 48.14q-2 4.01-4.48 8.5-2.43 4.48-4.78 9.73c0 .16 0 .3.24.41a10.9 10.9 0 0 0 2.15-.47l2.89-.74a14.53 14.53 0 0 1 3-.32 4 4 0 0 1 2.48.77 2.14 2.14 0 0 0 .5 1.68l1.18 1.21q1.47 1.53.23 4.07a6.34 6.34 0 0 1-4.24 3.36 9.41 9.41 0 0 1-2.38.38zm-565.9 18.5l16.16 24.89h.09V95.22H158v30.7h-4.47l-16-24.64h-.09v24.64h-3.87v-30.7zm39.6 0l12 30.7H185l-3.35-9.24h-13l-3.44 9.24H161l12-30.7zM177 89.5l-1.57-.77a14.64 14.64 0 0 0-1.59-.78 4.23 4.23 0 0 0-1.67-.34 3.75 3.75 0 0 0-2.91 1.2 7.39 7.39 0 0 0-1.52 3.83h2a2.26 2.26 0 0 1 2.36-2.19 3.62 3.62 0 0 1 1.53.34l1.53.77 1.54.78a4.22 4.22 0 0 0 4.5-.76c.79-.73 1.32-2.09 1.61-4.1h-2.11a3.2 3.2 0 0 1-.66 1.74 1.86 1.86 0 0 1-1.49.62 3.94 3.94 0 0 1-1.55-.34zm3.34 23.74l-5.12-14.32h-.09l-5.2 14.32zm11.36-8.71a15.28 15.28 0 0 1 2.77-5.14 13.68 13.68 0 0 1 4.6-3.57 16.11 16.11 0 0 1 12.82 0 13.58 13.58 0 0 1 4.6 3.57 15.11 15.11 0 0 1 2.77 5.14 20.08 20.08 0 0 1 0 12.08 15.11 15.11 0 0 1-2.77 5.14 13.41 13.41 0 0 1-4.6 3.55 16.34 16.34 0 0 1-12.82 0 13.5 13.5 0 0 1-4.6-3.55 15.28 15.28 0 0 1-2.77-5.14 20.29 20.29 0 0 1 0-12.08zm3.76 10.62a12.4 12.4 0 0 0 1.89 4.06 9.6 9.6 0 0 0 3.32 2.9 11.09 11.09 0 0 0 9.63 0 9.66 9.66 0 0 0 3.31-2.9 12.4 12.4 0 0 0 1.89-4.06 17.78 17.78 0 0 0 0-9.16 12.3 12.3 0 0 0-1.89-4.06A9.68 9.68 0 0 0 210.3 99a11.18 11.18 0 0 0-9.63 0 9.63 9.63 0 0 0-3.32 2.91 12.3 12.3 0 0 0-1.89 4.06 17.78 17.78 0 0 0 0 9.16zm62.87-19.93v3.44h-17.12v9.76h16v3.44h-16v10.62h17.25v3.44h-21.33v-30.7zm-9.89-9.16l-4.13 7h2.75l6.06-7zm39.77 9.16l12 30.7h-4.51l-3.36-9.24h-13l-3.44 9.24h-4.17l12-30.7zm2.84 18l-5.12-14.32h-.08l-5.21 14.32zm27.33 8.1a7.11 7.11 0 0 1-1.51 2.69 7.32 7.32 0 0 1-2.79 1.89 11.55 11.55 0 0 1-4.32.71 9.11 9.11 0 0 1-6.63-2.26c-1.54-1.5-2.32-3.72-2.32-6.64v-1.89h4.09v1.29a13.4 13.4 0 0 0 .21 2.45 5.37 5.37 0 0 0 .75 1.93 3.5 3.5 0 0 0 1.51 1.27 5.86 5.86 0 0 0 2.47.45c1.86 0 3.15-.5 3.85-1.5a7 7 0 0 0 1.05-4V95.22h4.09v23a10.58 10.58 0 0 1-.45 3.1zm28.53 2.34q-3.15 3-9 3-5.85 0-9.26-2.82-3.33-2.82-3.34-9V95.22h4.09v19.61q0 4.13 2.19 6.25a8.71 8.71 0 0 0 6.32 2.13 7.88 7.88 0 0 0 6-2.13q2-2.13 2-6.25V95.22H350v19.61c.05 3.92-1 6.87-3.09 8.83zm20.21-28.44q7.1 0 10.92 3.61 3.82 3.61 3.82 11a25 25 0 0 1-.85 6.86 13 13 0 0 1-2.67 5 11.48 11.48 0 0 1-4.6 3.11 18.37 18.37 0 0 1-6.62 1.08h-10.54V95.22zm.34 27.26c.46 0 1 0 1.72-.11a9.56 9.56 0 0 0 2.19-.51 10.09 10.09 0 0 0 2.3-1.19 7.76 7.76 0 0 0 2.05-2.1 11.9 11.9 0 0 0 1.48-3.34 17.35 17.35 0 0 0 .58-4.83 20.5 20.5 0 0 0-.54-4.93 9.38 9.38 0 0 0-1.76-3.69 7.76 7.76 0 0 0-3.16-2.33 12.59 12.59 0 0 0-4.77-.79h-6.88v23.82zm32.25-27.26l12 30.7h-4.52l-3.35-9.24h-13l-3.44 9.24h-4.17l12-30.7zm2.84 18l-5.12-14.32h-.09l-5.2 14.32zm17.15 7.93v4.34a7.73 7.73 0 0 1-1.11 4.21 6.11 6.11 0 0 1-3.61 2.5v-2.15a3.35 3.35 0 0 0 1.22-.75 4.58 4.58 0 0 0 .8-1.08 4.12 4.12 0 0 0 .4-1.18 4 4 0 0 0 .07-1.12h-2.54v-4.77zm34.06 3.35a10.08 10.08 0 0 1-6.28 1.89 11.31 11.31 0 0 1-4.62-.86 9.13 9.13 0 0 1-3.29-2.4 10.4 10.4 0 0 1-2-3.7 18.19 18.19 0 0 1-.75-4.69 13.48 13.48 0 0 1 .77-4.64 11.14 11.14 0 0 1 2.17-3.66 9.92 9.92 0 0 1 7.51-3.27 9.07 9.07 0 0 1 4.92 1.23 9.75 9.75 0 0 1 3.14 3.12 12.21 12.21 0 0 1 1.63 4.12 17.15 17.15 0 0 1 .37 4.26h-16.64a9 9 0 0 0 .34 2.77 6.41 6.41 0 0 0 1.25 2.33 6.12 6.12 0 0 0 2.19 1.61 7.62 7.62 0 0 0 3.14.6 6.38 6.38 0 0 0 3.81-1.07 5.18 5.18 0 0 0 1.95-3.27H457a8.91 8.91 0 0 1-3.24 5.63zm-.88-14.27a6.09 6.09 0 0 0-1.33-2 6.35 6.35 0 0 0-2-1.34 6.26 6.26 0 0 0-2.52-.49 6.39 6.39 0 0 0-2.56.49 5.85 5.85 0 0 0-1.95 1.36 6.25 6.25 0 0 0-1.29 2 7.57 7.57 0 0 0-.56 2.43h12.77a7.51 7.51 0 0 0-.56-2.45zm-4.54-17.42l-4.12 7H447l6.06-7zm40.94 33.11v-3h-.09a5.39 5.39 0 0 1-2.83 2.67 10.93 10.93 0 0 1-4.26.81 10.08 10.08 0 0 1-4.5-.94 9.34 9.34 0 0 1-3.18-2.54 11.1 11.1 0 0 1-1.91-3.7 15.14 15.14 0 0 1-.65-4.47 15.48 15.48 0 0 1 .63-4.47 10.36 10.36 0 0 1 1.89-3.68 9.21 9.21 0 0 1 3.18-2.49 10.08 10.08 0 0 1 4.45-.93 11.26 11.26 0 0 1 1.85.17 9.31 9.31 0 0 1 2 .59 8.52 8.52 0 0 1 1.87 1.07 5.91 5.91 0 0 1 1.48 1.66h.09V95.22h3.65v30.7zM476.14 118a8 8 0 0 0 1.25 2.64 5.93 5.93 0 0 0 2.15 1.85 6.5 6.5 0 0 0 3.07.69 6 6 0 0 0 5.25-2.64 8.07 8.07 0 0 0 1.18-2.69 12.88 12.88 0 0 0 0-6.21 8 8 0 0 0-1.24-2.64 6.19 6.19 0 0 0-2.18-1.87 6.66 6.66 0 0 0-3.22-.71 6.26 6.26 0 0 0-3.14.73 5.79 5.79 0 0 0-2.06 1.93 8.39 8.39 0 0 0-1.12 2.76 14.55 14.55 0 0 0-.35 3.18 11.47 11.47 0 0 0 .41 2.98zm22.64-18.31v-4.47h3.66v4.47zm3.66 4v22.23h-3.66v-22.23zm8.98 0v4.69h.09a9.89 9.89 0 0 1 3.27-4 8.26 8.26 0 0 1 4.9-1.21V107a10.14 10.14 0 0 0-3.74.61 5.8 5.8 0 0 0-2.5 1.76 7.17 7.17 0 0 0-1.37 2.81 15.14 15.14 0 0 0-.43 3.81v9.89H508v-22.19zm25.97 20.81a10.07 10.07 0 0 1-6.27 1.89 11.35 11.35 0 0 1-4.63-.86 9.13 9.13 0 0 1-3.29-2.4 10.56 10.56 0 0 1-2-3.7 18.19 18.19 0 0 1-.75-4.69 13.25 13.25 0 0 1 .78-4.64 11 11 0 0 1 2.17-3.66 9.91 9.91 0 0 1 3.31-2.41 10.13 10.13 0 0 1 4.19-.86 9.07 9.07 0 0 1 4.92 1.23 9.75 9.75 0 0 1 3.14 3.12 12.23 12.23 0 0 1 1.64 4.12 17.61 17.61 0 0 1 .36 4.26h-16.64a8.67 8.67 0 0 0 .35 2.77 6 6 0 0 0 3.44 3.94 7.53 7.53 0 0 0 3.13.6 6.38 6.38 0 0 0 3.81-1.07 5.24 5.24 0 0 0 2-3.27h3.61a8.87 8.87 0 0 1-3.27 5.63zm-.88-14.27a6.09 6.09 0 0 0-1.33-2 6.35 6.35 0 0 0-2-1.34 6.24 6.24 0 0 0-2.51-.49 6.35 6.35 0 0 0-2.56.49 5.9 5.9 0 0 0-2 1.36 6.61 6.61 0 0 0-1.29 2 7.84 7.84 0 0 0-.56 2.43h12.77a7.51 7.51 0 0 0-.52-2.45zM545 99.69v-4.47h3.66v4.47zm3.66 4v22.23H545v-22.23zm15.13 0v3.22h-4.42v13.81a4.11 4.11 0 0 0 .1 1 1 1 0 0 0 .41.6 1.81 1.81 0 0 0 .84.28 12.69 12.69 0 0 0 1.4.07h1.67v3.22H561a13 13 0 0 1-2.43-.19 3.6 3.6 0 0 1-1.63-.71 3 3 0 0 1-.93-1.47 8.4 8.4 0 0 1-.3-2.49v-14.12h-3.78v-3.22h3.78V97h3.66v6.67zm3.53 6.56a10.53 10.53 0 0 1 2.06-3.7 9.66 9.66 0 0 1 3.4-2.47 12.36 12.36 0 0 1 9.31 0 9.76 9.76 0 0 1 3.38 2.47 10.53 10.53 0 0 1 2.06 3.7 14.75 14.75 0 0 1 .69 4.58 14.51 14.51 0 0 1-.69 4.55 10.53 10.53 0 0 1-2.06 3.68 9.59 9.59 0 0 1-3.38 2.45 12.75 12.75 0 0 1-9.31 0 9.49 9.49 0 0 1-3.4-2.45 10.53 10.53 0 0 1-2.06-3.68 14.51 14.51 0 0 1-.69-4.55 14.75 14.75 0 0 1 .69-4.58zm3.72 8.17a7.57 7.57 0 0 0 1.48 2.62 6.61 6.61 0 0 0 9.81 0 7.57 7.57 0 0 0 1.48-2.62 12.2 12.2 0 0 0 0-7.18 7.81 7.81 0 0 0-1.48-2.65 6.21 6.21 0 0 0-2.22-1.63 6.72 6.72 0 0 0-5.37 0 6.21 6.21 0 0 0-2.22 1.63 7.81 7.81 0 0 0-1.48 2.65 12.2 12.2 0 0 0 0 7.18z"/><defs ><path id="B" d="M347 33.63q-2.07 6.42-3.81 11.62-1.74 5.2-3.19 9.56l-2.69 8-2.3 7a6.83 6.83 0 0 1-3.84 5.49 10.44 10.44 0 0 1-4.48.88 10.15 10.15 0 0 1-3.89-.56 2.8 2.8 0 0 1-1.68-1.62 4.3 4.3 0 0 1 0-2.57c.25-1 .69-2.38 1.32-4.13l2.39-7.11 3-9.08a135.23 135.23 0 0 1 6.25-15.93 5.82 5.82 0 0 1 1.78-2.21 7.24 7.24 0 0 1 1.71-.83 10.62 10.62 0 0 0 1.53-.62 3.28 3.28 0 0 0 1.27-1.77 3.3 3.3 0 0 1 2.06-2 4.35 4.35 0 0 1 2.84-.09 3.4 3.4 0 0 1 2 1.89 5 5 0 0 1-.27 4.08z"/></defs></svg>