<svg id="Avatar_padrão" data-name="Avatar padrão" xmlns="http://www.w3.org/2000/svg" viewBox="0 0 322.76 322.76"><defs><style>.cls-1{fill:#3d3f97;}.cls-2{fill:#fff;}</style></defs><rect class="cls-1" width="322.76" height="322.76"/><path class="cls-2" d="M160.64,193.09l2.05,2.33c.67-4.15,2.57-7,6.53-8.24.25-.08.49-.56.53-.88a6.42,6.42,0,0,1,1.23-3.67c.57-.66,1.19-1.29,1.84-2a10.22,10.22,0,0,0-1.26-.15,6,6,0,0,1-5.66-4.24,10.46,10.46,0,0,1,.09-5.87c.55-2.45,1.17-4.88,1.74-7.32a2.28,2.28,0,0,0,0-.68c-.18.19-.45.35-.52.58-.2.6-.31,1.23-.46,1.85-.6,2.57-1.19,5.13-1.79,7.69-2.41.1-2.42,0-2.5-2.41a49.67,49.67,0,0,1,1.07-10,7.11,7.11,0,0,1,.27-.93l.84-.14c.13-1.69,1-3.29.11-5a1.85,1.85,0,0,1,.12-1.27c.34-1,.76-1.86,1.15-2.78.1-.25.34-.52.29-.73a5.33,5.33,0,0,1,1.1-4,9.54,9.54,0,0,0,1.6-3.24c.35-1.75,1.71-2.94,3-4.12a7.57,7.57,0,0,0,.89-1.06c.81-1.06,1.56-2.17,2.43-3.18.56-.65,1.48-1.05,1.9-1.76a12.52,12.52,0,0,1,4.35-4.15,2.5,2.5,0,0,0,.73-.64,10.67,10.67,0,0,1,5.27-3.94,2.75,2.75,0,0,0,1-.61,9.4,9.4,0,0,1,4.87-2.67,11.72,11.72,0,0,0,1.73-.72,33.18,33.18,0,0,1,3.25-1.28c1.17-.34,2.47-.19,3.53-1a3.41,3.41,0,0,1,1.14-.38c2.12-.52,3.5.24,3.86,1.8-.9,1.23-1.62,2.31-2.46,3.28-.33.39-1,.84-1.4.75-.73-.18-.43-.9-.18-1.36.45-.84,1-1.63,1.49-2.44a3.44,3.44,0,0,0-3.48.91,10.43,10.43,0,0,0-1.48,2.68c-.27.61-1,1.39-1.43,1.22-.75-.27-.63-.88-.43-1.44.26-.72.55-1.42.85-2.17a2,2,0,0,0-.49,0c-2,.45-4,1.9-3.84,4.58,0,.73-.66,1.55-1.24,1.44-.78-.14-.86-.81-.77-1.43.11-.77.34-1.53.53-2.39a8.87,8.87,0,0,0-1,.27,4,4,0,0,0-2.65,4.52,1.28,1.28,0,0,1-1.13,1.45c-.77.17-1-.51-1.06-1.07a11.45,11.45,0,0,1,.11-2c-.72.44-1.35.78-1.92,1.19a3.14,3.14,0,0,0-1,4.06,1.74,1.74,0,0,1-.39,1.38.83.83,0,0,1-1.4,0,17.78,17.78,0,0,1-1.05-2.06,16.19,16.19,0,0,0-1.92,2.19c-.6,1-.79,2.27.72,3,.66.33.43.85.12,1.28a1.4,1.4,0,0,1-2.14.2,11.86,11.86,0,0,1-1.36-1.76,3.48,3.48,0,0,0-1.68,2.17,1.84,1.84,0,0,0,.89,2.39c.74.4.67.8.19,1.35a1.42,1.42,0,0,1-2,.28c-.54-.32-1-.72-1.61-1.14a13.5,13.5,0,0,0-1.3,2.11,1.86,1.86,0,0,0,1.59,2.57c.28.05.73.26.77.46a1.12,1.12,0,0,1-.31,1,2.87,2.87,0,0,1-1.66.48,8.63,8.63,0,0,1-2.07-.85,14,14,0,0,0-.73,1.39,1.94,1.94,0,0,0,2,2.85c.38,0,.75,0,1.12,0,.73,0,1,.56.52,1.07a3,3,0,0,1-1.78.91,15.51,15.51,0,0,1-3-.34c-.09.26-.24.63-.36,1a1.91,1.91,0,0,0,1.78,2.63c.53,0,1.06-.16,1.59-.14.37,0,.9.11,1.05.36a1.09,1.09,0,0,1-.25,1,4.15,4.15,0,0,1-1.7.76,14,14,0,0,1-2.34,0,2.73,2.73,0,0,0,.23,2.63,2.85,2.85,0,0,0,3.47.58,27.9,27.9,0,0,0,2.66-2c.06.19.14.46.25.79,1.78,0,3.54,0,5.31,0,.24,0,.58-.35.7-.62.9-1.88,1.66-3.83,2.65-5.66a27.51,27.51,0,0,1,7.66-9.34,25,25,0,0,1,15.58-4.7c7.78.08,15.57.12,23.35.16.84,0,1.68-.11,2.52-.18a8,8,0,0,0,7-9.55,8.23,8.23,0,0,0-7.52-6.37q-10.31-.11-20.6-.19c-.67,0-1-.06-1.09-.89a13,13,0,0,0-3-7.77,2.69,2.69,0,0,0-1.6-.89,16.13,16.13,0,0,0-3,.14c-.63,0-1,0-1.2-.79-.64-3.05-1.64-5.94-3.94-7.83a22,22,0,0,0-.49-4.07c-.71-2.25-1.64-4.44-2.57-6.62a11.8,11.8,0,0,1-1.09-6.08,7.45,7.45,0,0,0-.18-1.68l-1.3,1c-.08.06-.1.18-.16.26-1,1.49-2,3-3,4.44-.1,0-.15,0-.16,0l-2.34-5.11a100.59,100.59,0,0,0-18.58-27.35,152,152,0,0,0-21.12-18.7c-2.76-2-5.56-3.93-8.36-5.86a1.49,1.49,0,0,0-1-.22c-.14,0-.32.51-.28.76.51,3.32,1,6.65,1.62,9.94a39.49,39.49,0,0,0,6.67,15.69c1,1.37,2,2.72,3.06,4.09-.1,0-.14.07-.15.06-.56-.37-1.13-.73-1.68-1.11a163.06,163.06,0,0,0-26.75-14.89,3.11,3.11,0,0,0-1-.09,3.6,3.6,0,0,0,0,1c.88,2.82,1.7,5.65,2.72,8.42a40.68,40.68,0,0,0,9.18,15c.86.86,1.74,1.7,2.65,2.57-4.66-1.54-9.2-3.14-13.81-4.53a88.39,88.39,0,0,0-14.18-3.22c3.51,7.09,7.34,13.83,13.42,19-2.07-.4-4-.92-6.06-1.31q-5.58-1.08-11.2-2c-1.7-.28-3.41-.44-5.12-.62-.23,0-.65.1-.69.24a1.08,1.08,0,0,0,.19.78c.73,1.1,1.44,2.22,2.24,3.26,2.21,2.86,4.35,5.79,6.75,8.49a70.49,70.49,0,0,0,5.6,5.14c-.21,0-.47,0-.71,0-3.09-.33-6.16-.69-9.25-1-1.45-.14-2.9-.22-4.36-.28-3.25-.12-6.51-.22-9.77-.33a1.53,1.53,0,0,0-.3,0c-.79.17-1,.58-.42,1.17,2.09,2.31,4.14,4.67,6.31,6.9a39.93,39.93,0,0,0,15.7,10.25l4.3,1.5a2.65,2.65,0,0,1-.47.08,132.76,132.76,0,0,0-20.91.69c-3.92.36-7.81,1-11.71,1.61-.3,0-.8.28-.8.43a1.32,1.32,0,0,0,.44.92c1.59,1.31,3.23,2.56,4.84,3.86a42.79,42.79,0,0,0,21.79,9.73,6.56,6.56,0,0,1-.69.32c-4.71,1.24-9.45,2.35-14.1,3.75-3.92,1.18-7.74,2.68-11.59,4.08a5.38,5.38,0,0,0-1.17.84,7.67,7.67,0,0,0,1.07.92c.93.53,1.91,1,2.86,1.47a53.69,53.69,0,0,0,14.07,5.37c1.14.23,2.3.42,3.59.65-3.24,1.28-6.36,2.42-9.4,3.73-3.76,1.63-7.47,3.39-11.19,5.13-.31.14-.51.53-.76.81a3.64,3.64,0,0,0,.82.61c5.44,2.24,10.85,4.58,16.92,5.35a4.39,4.39,0,0,1-.5.44c-4.12,2.67-8.3,5.27-12.35,8.05-2.81,1.93-5.45,4.1-8.14,6.2a3.15,3.15,0,0,0-.61,1,6.09,6.09,0,0,0,1,.38c.89.18,1.8.3,2.69.46a57.19,57.19,0,0,0,14.48,1.22,40.82,40.82,0,0,0,9.69-1.8c1.61-.53,3.2-1.13,4.86-1.73-.06.15-.07.22-.12.26-4,3.29-8.06,6.42-11.82,9.92-4.24,3.95-8.17,8.24-12.22,12.39a2.74,2.74,0,0,0-.37.79,2.66,2.66,0,0,0,.89.32c3.83-.05,7.66-.09,11.49-.22a29.82,29.82,0,0,0,9.16-1.81c2.94-1.07,5.79-2.38,8.51-3.51,0-.07,0,.07-.13.2-2.08,2.75-4.3,5.4-6.22,8.26-3.13,4.68-6.06,9.49-9,14.26a3.93,3.93,0,0,0-.27,1.17,6.11,6.11,0,0,0,1.13,0c1.09-.18,2.18-.41,3.26-.63a55,55,0,0,0,13.43-4.15c1.41-.69,2.79-1.42,4.23-2.15a.86.86,0,0,1,0,.31c-1.78,3.06-3.66,6.07-5.33,9.19-1.81,3.37-3.44,6.85-5.11,10.29a1.61,1.61,0,0,0,0,1c0,.08.54.14.79.06,3.26-1,6.56-2,9.77-3.17a36.09,36.09,0,0,0,14.16-8.81c4-4.18,7.64-8.61,11.28-13.06,4.26-5.21,8.32-10.59,12.52-15.85C157.12,197,158.9,195.09,160.64,193.09Z"/><path class="cls-2" d="M225.73,212.28a29.2,29.2,0,0,0,6.28-.44A7.91,7.91,0,0,0,236.37,199a8.45,8.45,0,0,0-6.8-3c-7.58,0-15.16,0-22.74,0a55.16,55.16,0,0,1-11.39-1,14.87,14.87,0,0,1-7.94-4.1c1.13.08,2.26.18,3.4.21.22,0,.46-.24.69-.38-.23-.13-.44-.37-.68-.4a3.8,3.8,0,0,1-3.16-1.91,17.79,17.79,0,0,1-1.44-3.4,6.19,6.19,0,0,0-5.69-4.92,1,1,0,0,1-.68-.56c-.57-2-1.12-4.06-1.59-6.11-.14-.61-.3-.87-1-.86-2.78,0-5.57,0-8.36,0h-1.28c.84-3.5,1.63-6.81,2.42-10.13l-.34-.11a6.24,6.24,0,0,0-.46,1.1c-.75,3.22-1.56,6.44-2.18,9.69-.41,2.16.68,5,3.41,5.67a23.44,23.44,0,0,0,3.94.3,4.88,4.88,0,0,1,3.05,1.11l-.39.81c.78,0,1.4,0,2-.13a5.4,5.4,0,0,1,6.19,3.68,13.9,13.9,0,0,0,2.79,5.87l-6.77-1.06a3.13,3.13,0,0,0-.2,1.1,9.16,9.16,0,0,0,.57,2.73c.19.42,1,.57,1.48.86a8.12,8.12,0,0,1,3.84,4.65c.71,2.19.22,4.36-.11,6.8-1.42-2.37-3.57-3.34-6.07-4.41.35.81.59,1.35.75,1.74.55,0,1-.16,1.14,0a1.34,1.34,0,0,1,.16,1,18.71,18.71,0,0,1-3.53,6.63c-.19.23-.56.31-.84.46l-.24-.3c1.46-2.07,3-4.07,3.61-6.64l-.48-.26-.49-.22a9.27,9.27,0,0,1-3.37,5.33.87.87,0,0,0-.3.5c-.13,1.13-.24,2.26-.38,3.64a49.82,49.82,0,0,0,5.25-3.49,7.89,7.89,0,0,0,2.43-5.59c1.18,1.69-.1,3.15-.5,4.7.45.14.9.27,1.34.42a60.2,60.2,0,0,0,17.83,3.08C210.78,212.24,218.26,212.26,225.73,212.28Z"/><path class="cls-2" d="M249,281.17a15.65,15.65,0,0,1-3.25.58,17.86,17.86,0,0,1-7-1.73c-2.51-1.21-5-2.49-7.46-3.72a9,9,0,0,0-8.59.05c-1.13.58-2.26,1.17-3.42,1.7a2.23,2.23,0,0,1-1.35.27c-1.27-.39-2.49-.92-3.72-1.38.45-2-.1-2.83-2-3.34a1.08,1.08,0,0,1-.59-.66,11.25,11.25,0,0,0-7.43-7.39c-1.31-.44-2.69-1.25-4.08-.22a1.08,1.08,0,0,1-1.34,0,38.93,38.93,0,0,1-13.1-10.28,68.11,68.11,0,0,1-9.29-15.5c-.29-.68-.53-1.39-.85-2.24.9.31,1.56.55,2.23.77s1.31.4,2,.6l.25-.47c-1.5-.75-3-1.51-3.59-3.21l-.34.13c.09.55.17,1.1.26,1.65l-.79-.21c-.58,1.06-.58,1.06-.2,2a63.86,63.86,0,0,0,5.71,11.09c3.17,5,6.79,9.53,11.76,12.83,1.95,1.3,4,2.45,6,3.67-.86,1.2-.88,1.23-1.36,1a41.87,41.87,0,0,1-9.37-6.31c-5.41-5-9.3-11.11-12.49-17.69-1.05-2.17-1.9-4.45-3-6.93a3.12,3.12,0,0,0,.66.25c.38,0,.76,0,1.14,0a6.4,6.4,0,0,0-.85-.71c-1-.6-2.11-1.17-3.17-1.74a2.89,2.89,0,0,0-.6-.18c-.12,1,.8,1.11,1.25,1.55s1,.71,1.13,1.18a68,68,0,0,0,8.79,17,38.61,38.61,0,0,0,9.12,9.7c2.44,1.71,5,3.28,7.52,4.95-.15,1-.35,2.1-.5,3.23-.34,2.64.53,4.81,3.39,5.44a17.63,17.63,0,0,0,8.69,0,.87.87,0,0,1,.78.2,2.19,2.19,0,0,0,3.15.72,1.22,1.22,0,0,1,.79-.12,6.25,6.25,0,0,1,4.65,3.57c.32.74.79,1.41,1.15,2.13a7.67,7.67,0,0,0,5,4.1,27.94,27.94,0,0,0,12.44.09c4.25-.78,8-2.91,11.67-5a2.22,2.22,0,0,0,.72-.56,3.39,3.39,0,0,0,.32-.86A4,4,0,0,0,249,281.17Z"/><path class="cls-2" d="M179.78,227c-.11-.73-.22-1.4-.3-1.95l-4.87.68-.67,1.39-.87-1.43-.67-.14c.94-1.13,1-1.87.27-3.93a16.21,16.21,0,0,1-5.36,4.94,3,3,0,0,1-1,.19c.18-.29.29-.69.55-.86a15.67,15.67,0,0,0,5.25-5,2.26,2.26,0,0,0-.56-2.8,2,2,0,0,0-1.83.13c-.5.35-.68,1.13-1,1.71-.17.3-.39.57-.58.85-.14-.31-.29-.6-.41-.91a1.62,1.62,0,0,1,0-.38l-.31-.14a11.2,11.2,0,0,0-1.24,2.84,9.63,9.63,0,0,1-2.42,5.83c1.59-.25,2.93-.39,4.24-.69s2.56-.74,3.84-1.13l.12.31-1.52,1.05c1.53,2.44,4.51,3.68,5,6.89a3.87,3.87,0,0,0,.41-.5,32.63,32.63,0,0,0,1.47-3.46c.45-1.41,1-2.9-.3-4.22a2.31,2.31,0,0,0,.1-.28Z"/><path class="cls-2" d="M180.84,211.69c-1.33.56-1.55,1-1.25,2.49a9.92,9.92,0,0,0,7.61,7.19,7.75,7.75,0,0,1-.27-5.75,5.3,5.3,0,0,0-3-5.91,1.08,1.08,0,0,0-.72-.13,2.48,2.48,0,0,0-1.37,3,15,15,0,0,0,3,5.77c.27.36.47.78.71,1.17l-.43.24A14.81,14.81,0,0,1,180.84,211.69Z"/><path class="cls-2" d="M178.63,191.47c-.6-.84-1.18-1.71-1.71-2.61a16.2,16.2,0,0,1-1.87-7c-2.91,3.72.58,10.56,6,11.77-.76-2.07-.44-4.09-.09-6.17a5.47,5.47,0,0,0-5-6.16,12.11,12.11,0,0,0,1,5.5c.76,1.7,1.76,3.29,2.65,4.93A.9.9,0,0,1,178.63,191.47Z"/><path class="cls-2" d="M183.32,228.17a8.34,8.34,0,0,0,3.73-4.13c.57-1.44.31-1.86-1.29-2.09-1.29,3.42-3,5.92-4.33,5.94,1.32-2.14,3-3.95,3.53-6.44-.93-.58-1.85-1.19-2.82-1.73a.94.94,0,0,0-.8.13,3.25,3.25,0,0,0-1.34,3.48c.38,2.16.93,4.28.09,6.55C181.17,229.31,182.27,228.78,183.32,228.17Z"/><path class="cls-2" d="M170.56,230c.15-.73-.69-2.22-1.16-2.14-1.17.21-2.33.51-3.56.79a18.13,18.13,0,0,0,.18,2.18c.29,1.44.67,2.87,1,4.31a1.72,1.72,0,0,1-.16.67,2.66,2.66,0,0,1-.55-.44,1.39,1.39,0,0,1-.21-.56c-.43-2.05-.87-4.1-1.31-6.17l-1.45.25c-.69,4.19,1.85,6.7,4.65,9.4-.27-2.4.84-4.12,1.83-5.91A8.49,8.49,0,0,0,170.56,230Z"/><path class="cls-2" d="M177.48,199.49c-.83-1.4-1.69-2.81-2.39-4.29a22.11,22.11,0,0,1-.92-3,1.33,1.33,0,0,0-1.14,1.7c.12.62.21,1.25.37,1.86.89,3.38,3.69,4.74,6.58,6.25a9.1,9.1,0,0,1-.4-2c0-1.44.25-2.87.32-4.3,0-.57.08-1.43-.25-1.68-1.38-1-2.9-1.89-4.56-2.93-.12,3.47,1.77,6.08,3.39,8.88A1.42,1.42,0,0,1,177.48,199.49Z"/><path class="cls-2" d="M179.9,204.53c.52-1.49.47-1.6-1.09-2.21a6.67,6.67,0,0,1-.29.74c-.83,1.57-1.64,3.14-2.51,4.69-.19.32-.61.5-.93.75l-.26-.27.37-.65c.88-1.62,1.77-3.24,2.63-4.86.3-.57.15-1-.45-1.3-.77-.41-1.48-.93-2.2-1.39a3.85,3.85,0,0,0-1.67,4.18,25.44,25.44,0,0,1,.32,3.9,12.71,12.71,0,0,1-.37,2.24c1.12-.63,2.16-1.12,3.11-1.75A8.07,8.07,0,0,0,179.9,204.53Z"/><path class="cls-2" d="M169.75,189.15c.24-.16.24-.7.36-1.07a2.71,2.71,0,0,0-.88-.07,7.31,7.31,0,0,0-3.73,2.47c-1.76,2.12-1.95,4.68-2.12,7.47a8.79,8.79,0,0,1,5.15-2.44,4.87,4.87,0,0,0,3.49-2.1c-1.15.52-2.25,1.14-3.37,1.7a2.84,2.84,0,0,1-1,.07c.18-.26.29-.62.54-.77,1.73-1,2-2.68,2.18-4.63-2.28,1.21-3.57,3.07-4.9,4.89a7,7,0,0,1-.93.87,4.23,4.23,0,0,1,.34-1.28A16.77,16.77,0,0,1,169.75,189.15Z"/><path class="cls-2" d="M178.74,215c-1.89,1.67-2.66,4.12-4,6.25a1.36,1.36,0,0,1-.13-1,12.2,12.2,0,0,1,.81-1.85c.63-1.15,1.33-2.26,2-3.41a11.49,11.49,0,0,1-1.75.57,2,2,0,0,0-1.67,1.59c-.7,2.11-.28,4.2,0,6.41,1.67-2.67,4.91-2.86,7-4.49Z"/><path class="cls-2" d="M169.45,196.06c-.86.12-1.17.66-1.41,1.37a12.71,12.71,0,0,0,0,6.62c1.32-2.71,4.54-2.81,6.32-4.54-.76-1.46-1.42-2.75-2.23-4.33-1.19,2.25-2.31,4.38-3.43,6.52-.55-.67-.55-.67,2.41-6.26A7.63,7.63,0,0,1,169.45,196.06Z"/><path class="cls-2" d="M170.55,193.26c1.23-.7,2.31-1.25,3.32-1.91,1.21-.8,1.18-.84.3-2-.81.49-.84,1.88-2.38,2l1-1.53a2.93,2.93,0,0,0,.68-2.68,7.73,7.73,0,0,1,0-3.18,19.47,19.47,0,0,1,.89-3,5.62,5.62,0,0,0-3.62,6.64,15.25,15.25,0,0,1,.22,3.71A10.44,10.44,0,0,1,170.55,193.26Z"/><path class="cls-2" d="M178.49,213c-.1,0-.14-.08-.15-.07-1.12.54-2.22,1.11-3.35,1.6a4.66,4.66,0,0,1-1.31.18,5,5,0,0,1,.88-.94,3.9,3.9,0,0,0,1.73-4.25,28.65,28.65,0,0,0-2.81,2.18c-.93.92-1.67,2-2.53,3-.17.21-.51.28-.77.42l-.24-.34,1.77-2.5h-1.19a4.48,4.48,0,0,1,.71-.88,3.41,3.41,0,0,0,1.67-2.73c-2.57,1.63-4.41,5.77-3.81,8.6,2.16-1.51,2.38-1.58,5.33-2.17A6.41,6.41,0,0,0,178.49,213Z"/><path class="cls-2" d="M194.64,228.22c.21-.25.55-.48.59-.76.27-1.7.44-3.41.7-5.1a8.67,8.67,0,0,0-6.29-10,20.05,20.05,0,0,0-2.08-.35c0,.14-.09.28-.14.42a3,3,0,0,0,.81.43,7.83,7.83,0,0,1,6.6,5.23c.86,2.21.3,4.43-.07,6.91-1.53-2.54-4-3.28-6.31-4.37l-.23.21a4.34,4.34,0,0,0,.8.85c1.14.65,2.38,1.13,3.45,1.88a4.06,4.06,0,0,1,1.93,3.79A2.63,2.63,0,0,0,194.64,228.22Z"/><path class="cls-2" d="M155.62,228.34c.18-.84.36-1.75.55-2.67a8,8,0,0,1,9.78-6.22c.23.06.54-.15.81-.24l-.11-.33a5.6,5.6,0,0,1-.59-.12c-3.77-1-8.4.93-9.82,4.55a56.24,56.24,0,0,0-2,7.69c-.05.21.19.48.3.72.17-.2.44-.37.5-.6a3.89,3.89,0,0,1,2.84-2.89,26.11,26.11,0,0,1,3.86-.63c.57-.06,1.1-.06,1.18-.89a30.37,30.37,0,0,0-3.74.37A30.88,30.88,0,0,0,155.62,228.34Z"/><path class="cls-2" d="M192.38,219.19c.41.85.71,1.74,1.12,2.59.1.21.39.33.6.49,0-.26.19-.55.12-.77a22.66,22.66,0,0,0-.91-2.23,14.32,14.32,0,0,0-5.43-6.2l-.24.22a5.44,5.44,0,0,0,.82,1.06A14.14,14.14,0,0,1,192.38,219.19Z"/><path class="cls-2" d="M157,226.06l.12.33c.26-.12.61-.17.77-.37a16.24,16.24,0,0,1,7.38-5.29,4.46,4.46,0,0,0,.95-.65C163,220.12,158.72,223.13,157,226.06Z"/><path class="cls-2" d="M186.41,202.71c0-.23.15-.49.08-.67a39.28,39.28,0,0,0-1.55-3.8,5.08,5.08,0,0,0-3.19-3,15.19,15.19,0,0,1,1.65,2.06c.88,1.61,1.62,3.29,2.45,4.93C186,202.41,186.22,202.54,186.41,202.71Z"/><path class="cls-2" d="M171.6,206.64c-.29.86-.56,1.67-.82,2.49l.25.12,2-3.74c-1.58.69-3.34.22-4.78.9l.09.41Z"/><path class="cls-2" d="M163.65,206.77c1.21,0,2.42,0,3.62,0l.13-.31-.84-.46c.25-.46.51-1,.76-1.44l-.35-.18a3.92,3.92,0,0,1-3.32,1.6c-.19,0-.39.26-.59.4C163.26,206.53,163.45,206.77,163.65,206.77Z"/><path class="cls-2" d="M186,188.94l-4.14-2.7C181.83,187.36,184.52,189.29,186,188.94Z"/><path class="cls-2" d="M179.25,222.18l-4.34,2.24.13.44a9.92,9.92,0,0,0,3.8-1.69C179,223.05,179.06,222.64,179.25,222.18Z"/><path class="cls-2" d="M172.09,233.44c.64.62,1.06,1.71,2.54,1.6l-3.36-3.61C170.93,232.18,170.87,232.23,172.09,233.44Z"/><path class="cls-2" d="M167.42,196.51l-2.58,1.16,1.83,1.61C166.94,198.3,167.16,197.46,167.42,196.51Z"/><path class="cls-2" d="M168.87,205.14c.2,0,.44.16.59.09,1-.47,1.91-1,2.82-1.52.23-.13.29-.52.43-.8l-.17-.11c-1.12.6-2.25,1.18-3.36,1.8C169,204.69,169,205,168.87,205.14Z"/><path class="cls-2" d="M173.47,216.11l-1.42.34.64,2.14Z"/></svg>